<svg xmlns="http://www.w3.org/2000/svg" width="768" viewBox="0 0 768 768" height="768" version="1.0"><defs><clipPath id="a"><path d="M 70.976562 150 L 176 150 L 176 207 L 70.976562 207 Z M 70.976562 150"/></clipPath><clipPath id="b"><path d="M 397 474 L 697.226562 474 L 697.226562 768 L 397 768 Z M 397 474"/></clipPath></defs><path fill="#FFB544" d="M 340.148438 176.230469 C 340.144531 177.640625 340.101562 179.046875 340.027344 180.457031 C 339.953125 181.863281 339.84375 183.265625 339.699219 184.667969 C 339.554688 186.070312 339.378906 187.46875 339.164062 188.863281 C 338.953125 190.257812 338.707031 191.644531 338.425781 193.023438 C 338.144531 194.40625 337.832031 195.78125 337.480469 197.144531 C 337.132812 198.511719 336.753906 199.867188 336.339844 201.214844 C 335.925781 202.5625 335.476562 203.898438 334.996094 205.222656 C 334.515625 206.546875 334.003906 207.863281 333.460938 209.160156 C 332.917969 210.460938 332.339844 211.746094 331.734375 213.019531 C 331.125 214.292969 330.488281 215.546875 329.816406 216.789062 C 329.148438 218.027344 328.449219 219.253906 327.722656 220.460938 C 326.992188 221.664062 326.234375 222.851562 325.445312 224.023438 C 324.660156 225.191406 323.84375 226.339844 323 227.46875 C 322.15625 228.597656 321.285156 229.707031 320.386719 230.792969 C 319.488281 231.878906 318.566406 232.945312 317.613281 233.984375 C 316.664062 235.027344 315.691406 236.042969 314.691406 237.039062 C 313.691406 238.03125 312.664062 239 311.617188 239.941406 C 310.570312 240.886719 309.5 241.804688 308.40625 242.695312 C 307.316406 243.585938 306.203125 244.449219 305.066406 245.285156 C 303.929688 246.121094 302.777344 246.929688 301.601562 247.707031 C 300.425781 248.488281 299.234375 249.238281 298.023438 249.960938 C 296.8125 250.679688 295.582031 251.371094 294.339844 252.03125 C 293.09375 252.695312 291.832031 253.324219 290.554688 253.921875 C 289.28125 254.523438 287.988281 255.089844 286.6875 255.625 C 285.382812 256.160156 284.066406 256.664062 282.738281 257.136719 C 281.40625 257.609375 280.070312 258.046875 278.71875 258.453125 C 277.367188 258.859375 276.007812 259.230469 274.640625 259.570312 C 273.273438 259.910156 271.894531 260.214844 270.511719 260.484375 C 269.128906 260.757812 267.738281 260.996094 266.34375 261.199219 C 264.949219 261.402344 263.550781 261.570312 262.148438 261.707031 C 260.742188 261.839844 259.335938 261.941406 257.929688 262.007812 C 256.519531 262.074219 255.113281 262.105469 253.703125 262.101562 C 252.292969 262.101562 250.882812 262.0625 249.476562 261.992188 C 248.066406 261.917969 246.660156 261.8125 245.257812 261.671875 C 243.855469 261.53125 242.457031 261.355469 241.0625 261.144531 C 239.667969 260.9375 238.28125 260.691406 236.898438 260.414062 C 235.515625 260.136719 234.140625 259.824219 232.773438 259.480469 C 231.40625 259.136719 230.050781 258.757812 228.699219 258.347656 C 227.351562 257.933594 226.015625 257.492188 224.6875 257.015625 C 223.359375 256.535156 222.046875 256.027344 220.746094 255.488281 C 219.441406 254.945312 218.15625 254.371094 216.882812 253.765625 C 215.609375 253.164062 214.351562 252.527344 213.109375 251.859375 C 211.863281 251.195312 210.640625 250.5 209.429688 249.773438 C 208.222656 249.046875 207.035156 248.289062 205.863281 247.507812 C 204.691406 246.722656 203.539062 245.910156 202.40625 245.066406 C 201.277344 244.226562 200.167969 243.359375 199.078125 242.464844 C 197.988281 241.566406 196.921875 240.644531 195.878906 239.699219 C 194.835938 238.75 193.816406 237.777344 192.820312 236.78125 C 191.824219 235.78125 190.851562 234.761719 189.90625 233.714844 C 188.960938 232.671875 188.042969 231.601562 187.148438 230.511719 C 186.253906 229.421875 185.386719 228.3125 184.550781 227.179688 C 183.710938 226.046875 182.898438 224.890625 182.117188 223.71875 C 181.335938 222.546875 180.582031 221.355469 179.859375 220.148438 C 179.132812 218.9375 178.441406 217.710938 177.777344 216.46875 C 177.113281 215.222656 176.480469 213.964844 175.878906 212.691406 C 175.277344 211.417969 174.707031 210.128906 174.167969 208.824219 C 173.628906 207.523438 173.121094 206.207031 172.648438 204.878906 C 172.171875 203.554688 171.730469 202.214844 171.320312 200.867188 C 170.914062 199.519531 170.539062 198.160156 170.195312 196.792969 C 169.851562 195.425781 169.546875 194.050781 169.269531 192.667969 C 168.996094 191.285156 168.753906 189.898438 168.546875 188.503906 C 168.339844 187.109375 168.167969 185.710938 168.03125 184.308594 C 167.894531 182.90625 167.789062 181.5 167.722656 180.089844 C 167.652344 178.683594 167.617188 177.273438 167.617188 175.867188 C 167.617188 174.457031 167.652344 173.046875 167.722656 171.640625 C 167.789062 170.234375 167.894531 168.828125 168.03125 167.425781 C 168.167969 166.023438 168.339844 164.625 168.546875 163.230469 C 168.753906 161.835938 168.996094 160.445312 169.269531 159.0625 C 169.546875 157.683594 169.851562 156.308594 170.195312 154.941406 C 170.539062 153.574219 170.914062 152.214844 171.320312 150.867188 C 171.730469 149.515625 172.171875 148.179688 172.644531 146.851562 C 173.121094 145.523438 173.628906 144.210938 174.167969 142.90625 C 174.707031 141.605469 175.277344 140.316406 175.878906 139.042969 C 176.480469 137.765625 177.113281 136.507812 177.777344 135.265625 C 178.441406 134.019531 179.132812 132.792969 179.859375 131.585938 C 180.582031 130.375 181.335938 129.183594 182.117188 128.011719 C 182.898438 126.839844 183.710938 125.6875 184.550781 124.554688 C 185.386719 123.421875 186.253906 122.308594 187.148438 121.21875 C 188.042969 120.128906 188.960938 119.0625 189.90625 118.015625 C 190.851562 116.972656 191.824219 115.949219 192.820312 114.953125 C 193.816406 113.953125 194.835938 112.980469 195.878906 112.035156 C 196.921875 111.085938 197.988281 110.164062 199.078125 109.269531 C 200.164062 108.375 201.277344 107.503906 202.40625 106.664062 C 203.539062 105.824219 204.691406 105.011719 205.863281 104.226562 C 207.03125 103.441406 208.222656 102.6875 209.429688 101.960938 C 210.640625 101.234375 211.863281 100.535156 213.105469 99.871094 C 214.347656 99.203125 215.609375 98.570312 216.882812 97.964844 C 218.15625 97.359375 219.441406 96.785156 220.742188 96.246094 C 222.046875 95.703125 223.359375 95.195312 224.6875 94.71875 C 226.011719 94.242188 227.351562 93.796875 228.699219 93.386719 C 230.046875 92.972656 231.40625 92.59375 232.773438 92.25 C 234.140625 91.90625 235.515625 91.59375 236.898438 91.316406 C 238.277344 91.039062 239.667969 90.796875 241.0625 90.585938 C 242.457031 90.378906 243.855469 90.203125 245.257812 90.0625 C 246.660156 89.921875 248.066406 89.8125 249.472656 89.742188 C 250.882812 89.667969 252.289062 89.632812 253.699219 89.628906 C 255.117188 89.621094 256.535156 89.652344 257.953125 89.714844 C 259.371094 89.78125 260.785156 89.878906 262.195312 90.011719 C 263.609375 90.148438 265.015625 90.316406 266.421875 90.519531 C 267.824219 90.722656 269.222656 90.960938 270.613281 91.234375 C 272.003906 91.503906 273.390625 91.8125 274.765625 92.152344 C 276.144531 92.492188 277.511719 92.867188 278.871094 93.277344 C 280.226562 93.6875 281.574219 94.128906 282.910156 94.601562 C 284.246094 95.078125 285.570312 95.585938 286.882812 96.125 C 288.195312 96.667969 289.492188 97.238281 290.773438 97.84375 C 292.054688 98.449219 293.324219 99.085938 294.574219 99.75 C 295.828125 100.417969 297.0625 101.117188 298.277344 101.84375 C 299.496094 102.574219 300.691406 103.332031 301.871094 104.117188 C 303.050781 104.90625 304.210938 105.722656 305.351562 106.566406 C 306.488281 107.410156 307.609375 108.28125 308.703125 109.183594 C 309.800781 110.082031 310.871094 111.007812 311.921875 111.960938 C 312.972656 112.914062 314 113.894531 315 114.898438 C 316.003906 115.902344 316.980469 116.929688 317.929688 117.980469 C 318.882812 119.03125 319.804688 120.105469 320.703125 121.203125 C 321.601562 122.300781 322.472656 123.421875 323.316406 124.5625 C 324.15625 125.703125 324.972656 126.863281 325.757812 128.042969 C 326.542969 129.226562 327.296875 130.425781 328.023438 131.640625 C 328.75 132.859375 329.445312 134.09375 330.109375 135.347656 C 330.773438 136.601562 331.40625 137.867188 332.007812 139.152344 C 332.613281 140.4375 333.179688 141.734375 333.71875 143.046875 C 334.257812 144.359375 334.761719 145.683594 335.234375 147.019531 C 335.707031 148.355469 336.148438 149.703125 336.550781 151.0625 C 336.957031 152.421875 337.332031 153.789062 337.667969 155.164062 C 338.007812 156.542969 338.308594 157.925781 338.582031 159.320312 C 338.851562 160.710938 339.085938 162.109375 339.285156 163.511719 C 339.484375 164.917969 339.652344 166.324219 339.78125 167.734375 C 339.914062 169.148438 340.011719 170.5625 340.070312 171.976562 C 340.132812 173.394531 340.15625 174.8125 340.148438 176.230469 Z M 340.148438 176.230469"/><path transform="matrix(1.81997 0 0 1.81935 70.976 .117)" fill="#FFAE46" d="M 99.600694 0.500515 L 101.199712 0.500515 C 101.311321 0.500515 101.40576 0.539162 101.483028 0.616456 C 101.560296 0.695897 101.59893 0.790368 101.59893 0.899867 L 101.59893 42.750277 C 101.59893 42.859777 101.560296 42.954247 101.483028 43.033688 C 101.40576 43.110982 101.311321 43.149629 101.199712 43.149629 L 99.600694 43.149629 C 99.489085 43.149629 99.394646 43.110982 99.317379 43.033688 C 99.240111 42.954247 99.19933 42.859777 99.19933 42.750277 L 99.19933 0.899867 C 99.19933 0.790368 99.240111 0.695897 99.317379 0.616456 C 99.394646 0.539162 99.489085 0.500515 99.600694 0.500515 Z M 99.600694 0.500515" stroke="#FFAE46" stroke-miterlimit="10"/><path transform="matrix(1.63716 -.7947 .79496 1.63661 -84.449 23.587)" fill="#FFAE46" d="M 131.999415 76.9002 L 133.600683 76.89964 C 133.71013 76.900275 133.80562 76.939482 133.882353 77.017317 C 133.961016 77.096089 133.999519 77.188776 133.999848 77.301115 L 133.999637 100.209425 C 134.000904 100.319833 133.96168 100.415353 133.882903 100.494053 C 133.805064 100.570823 133.709518 100.610352 133.600071 100.609717 L 131.998803 100.610277 C 131.889356 100.609642 131.795797 100.571372 131.717134 100.4926 C 131.63847 100.413828 131.599967 100.321141 131.599638 100.208802 L 131.599849 77.300491 C 131.59952 77.188153 131.639737 77.095502 131.718514 77.016801 C 131.794422 76.939094 131.889968 76.899564 131.999415 76.9002 Z M 131.999415 76.9002" stroke="#FFAE46" stroke-miterlimit="10"/><path transform="matrix(1.63716 -.7947 .79496 1.63661 -174.9 91.266)" fill="#FFAE46" d="M 188.000465 203.600646 L 189.599803 203.599149 C 189.71118 203.600721 189.804739 203.638991 189.883403 203.717763 C 189.960135 203.795598 190.000569 203.889222 189.998968 204.000624 L 190.000687 226.909872 C 190.000023 227.019342 189.960799 227.114861 189.882023 227.193562 C 189.804184 227.270331 189.710568 227.310799 189.601121 227.310164 L 187.999853 227.310723 C 187.890406 227.310088 187.794917 227.270881 187.718184 227.193046 C 187.63952 227.114274 187.599086 227.02065 187.600688 226.909248 L 187.598968 204 C 187.599632 203.89053 187.638856 203.795011 187.717633 203.71631 C 187.795472 203.63954 187.889088 203.599073 188.000465 203.600646 Z M 188.000465 203.600646" stroke="#FFAE46" stroke-miterlimit="10"/><path transform="matrix(1.71977 .59532 -.59552 1.7192 32.575 -199.284)" fill="#FFAE46" d="M 183.800604 75.600694 L 185.399159 75.599275 C 185.510483 75.599352 185.603951 75.639694 185.682917 75.716868 C 185.759854 75.794745 185.799661 75.890023 185.798905 75.999347 L 185.800383 98.908817 C 185.800329 99.020171 185.76072 99.115684 185.68288 99.192625 C 185.605743 99.271596 185.509795 99.309365 185.401202 99.310614 L 183.799916 99.310707 C 183.69062 99.309928 183.595124 99.270288 183.516158 99.193114 C 183.439221 99.115238 183.399414 99.019959 183.40017 98.910635 L 183.40072 76.000462 C 183.400774 75.889109 183.439058 75.796327 183.516195 75.717357 C 183.596063 75.639713 183.68928 75.600617 183.800604 75.600694 Z M 183.800604 75.600694" stroke="#FFAE46" stroke-miterlimit="10"/><path transform="matrix(1.71977 .59532 -.59552 1.7192 104.646 -156.53)" fill="#FFAE46" d="M 133.798903 204.899786 L 135.400189 204.899693 C 135.509485 204.900472 135.604279 204.938083 135.683947 205.017286 C 135.760884 205.095162 135.799989 205.188412 135.799935 205.299765 L 135.799385 228.209937 C 135.799331 228.321291 135.761047 228.414073 135.68391 228.493043 C 135.604042 228.570687 135.510825 228.609783 135.399501 228.609706 L 133.800243 228.609096 C 133.689622 228.611048 133.596154 228.570706 133.517188 228.493532 C 133.439548 228.413627 133.400444 228.320377 133.400498 228.209024 L 133.399019 205.299554 C 133.399776 205.190229 133.439385 205.094716 133.517225 205.017775 C 133.594362 204.938804 133.689607 204.899006 133.798903 204.899786 Z M 133.798903 204.899786" stroke="#FFAE46" stroke-miterlimit="10"/><path transform="matrix(.79496 1.63661 -1.63716 .7947 393.11 -339.01)" fill="#FFAE46" d="M 223.400289 110.999879 L 224.99996 110.998806 C 225.111361 111.000408 225.20495 111.038694 225.28365 111.117471 C 225.36042 111.19531 225.400887 111.288925 225.399314 111.400303 L 225.399488 134.310624 C 225.400784 134.421009 225.360583 134.51363 225.283742 134.593231 C 225.20497 134.671895 225.110352 134.70946 224.999944 134.710727 L 223.401211 134.709869 C 223.288872 134.710198 223.195284 134.671912 223.116583 134.593135 C 223.039814 134.515296 223.000284 134.41975 223.000919 134.310303 L 223.000746 111.399982 C 222.99945 111.289597 223.038656 111.194108 223.116491 111.117375 C 223.195264 111.038712 223.289882 111.001146 223.400289 110.999879 Z M 223.400289 110.999879" stroke="#FFAE46" stroke-miterlimit="10"/><path transform="matrix(.79496 1.63661 -1.63716 .7947 354.891 -73.931)" fill="#FFAE46" d="M 96.60064 167.101125 L 98.200311 167.100052 C 98.309781 167.100716 98.4053 167.13994 98.48207 167.217779 C 98.561708 167.294625 98.599306 167.389233 98.600603 167.499618 L 98.600776 190.409939 C 98.600141 190.519386 98.560934 190.614875 98.482162 190.693539 C 98.404327 190.770272 98.310703 190.810706 98.199301 190.809104 L 96.599631 190.810177 C 96.490161 190.809513 96.394641 190.770289 96.317872 190.69245 C 96.239171 190.613673 96.200635 190.520996 96.199339 190.410611 L 96.199165 167.50029 C 96.200738 167.388912 96.239007 167.295353 96.31778 167.21669 C 96.395615 167.139957 96.489239 167.099523 96.60064 167.101125 Z M 96.60064 167.101125" stroke="#FFAE46" stroke-miterlimit="10"/><path transform="matrix(-.59552 1.7192 -1.71977 -.59532 811.156 -57.558)" fill="#FFAE46" d="M 224.599356 165.300718 L 226.201067 165.300292 C 226.310391 165.301048 226.405202 165.338629 226.482144 165.416469 C 226.561816 165.495635 226.598883 165.589554 226.600835 165.700175 L 226.599645 188.609665 C 226.599568 188.720989 226.561255 188.813754 226.482052 188.893422 C 226.404175 188.970359 226.310926 189.009464 226.199572 189.00941 L 224.599891 189.009134 C 224.48924 189.011109 224.395755 188.970796 224.316785 188.893659 C 224.239141 188.813791 224.200046 188.720575 224.200123 188.609251 L 224.199283 165.700464 C 224.19936 165.58914 224.239703 165.495672 224.316877 165.416707 C 224.394753 165.339769 224.490032 165.299962 224.599356 165.300718 Z M 224.599356 165.300718" stroke="#FFAE46" stroke-miterlimit="10"/><path transform="matrix(-.59552 1.7192 -1.71977 -.59532 412.947 43.781)" fill="#FFAE46" d="M 95.400529 115.29973 L 97.000211 115.300006 C 97.111564 115.30006 97.204346 115.338344 97.284019 115.417509 C 97.36096 115.495349 97.400056 115.588565 97.399979 115.699889 L 97.398789 138.609379 C 97.400741 138.72 97.361101 138.815496 97.283224 138.892433 C 97.204021 138.972101 97.11007 139.009178 96.999419 139.011152 L 95.399737 139.010876 C 95.290412 139.01012 95.194899 138.970511 95.117958 138.892671 C 95.038987 138.815533 94.99919 138.720289 94.999969 138.610993 L 95.000456 115.699475 C 95.001235 115.59018 95.038847 115.495386 95.116021 115.416421 C 95.195926 115.338781 95.289175 115.299676 95.400529 115.29973 Z M 95.400529 115.29973" stroke="#FFAE46" stroke-miterlimit="10"/><path transform="matrix(1.81997 0 0 1.81935 70.976 .117)" fill="#FFAE46" d="M 100.800494 155.298936 L 102.399512 155.298936 C 102.511121 155.298936 102.60556 155.33973 102.682828 155.417024 C 102.760096 155.494318 102.800876 155.588788 102.800876 155.700435 L 102.800876 197.550845 C 102.800876 197.660345 102.760096 197.754815 102.682828 197.832109 C 102.60556 197.91155 102.511121 197.950197 102.399512 197.950197 L 100.800494 197.950197 C 100.688885 197.950197 100.594446 197.91155 100.517178 197.832109 C 100.43991 197.754815 100.39913 197.660345 100.39913 197.550845 L 100.39913 155.700435 C 100.39913 155.588788 100.43991 155.494318 100.517178 155.417024 C 100.594446 155.33973 100.688885 155.298936 100.800494 155.298936 Z M 100.800494 155.298936" stroke="#FFAE46" stroke-miterlimit="10"/><path transform="matrix(0 1.81935 -1.81997 0 666.65 -254.229)" fill="#FFAE46" d="M 235.799401 129.300703 L 237.398957 129.300703 C 237.510604 129.300703 237.605074 129.339337 237.682368 129.416605 C 237.761809 129.496019 237.800456 129.590458 237.800456 129.699921 L 237.800456 171.549108 C 237.800456 171.660717 237.761809 171.755156 237.682368 171.832424 C 237.605074 171.911838 237.510604 171.950472 237.398957 171.950472 L 235.799401 171.950472 C 235.689901 171.950472 235.59543 171.911838 235.518136 171.832424 C 235.438695 171.755156 235.400048 171.660717 235.400048 171.549108 L 235.400048 129.699921 C 235.400048 129.590458 235.438695 129.496019 235.518136 129.416605 C 235.59543 129.339337 235.689901 129.300703 235.799401 129.300703 Z M 235.799401 129.300703" stroke="#FFAE46" stroke-miterlimit="10"/><path fill="#FFAE46" d="M 149.417969 176.957031 L 149.417969 179.867188 C 149.417969 180.070312 149.347656 180.242188 149.203125 180.382812 C 149.0625 180.523438 148.890625 180.597656 148.6875 180.597656 L 72.523438 180.597656 C 72.320312 180.597656 72.152344 180.523438 72.007812 180.382812 C 71.867188 180.242188 71.796875 180.070312 71.796875 179.867188 L 71.796875 176.957031 C 71.796875 176.757812 71.867188 176.585938 72.007812 176.441406 C 72.152344 176.300781 72.320312 176.230469 72.523438 176.230469 L 148.6875 176.230469 C 148.890625 176.230469 149.0625 176.300781 149.203125 176.441406 C 149.347656 176.585938 149.417969 176.757812 149.417969 176.957031 Z M 149.417969 176.957031"/><g clip-path="url(#a)"><path transform="matrix(0 1.81935 -1.81997 0 387.104 29.59)" fill="none" d="M 80.999611 130.59936 L 82.599168 130.59936 C 82.710815 130.59936 82.805285 130.637994 82.882579 130.717408 C 82.959873 130.794676 83.000667 130.889114 83.000667 131.000724 L 83.000667 172.849911 C 83.000667 172.96152 82.959873 173.053813 82.882579 173.133227 C 82.805285 173.210495 82.710815 173.249129 82.599168 173.249129 L 80.999611 173.249129 C 80.890111 173.249129 80.795641 173.210495 80.7162 173.133227 C 80.638906 173.053813 80.600259 172.96152 80.600259 172.849911 L 80.600259 131.000724 C 80.600259 130.889114 80.638906 130.794676 80.7162 130.717408 C 80.795641 130.637994 80.890111 130.59936 80.999611 130.59936 Z M 80.999611 130.59936" stroke="#FFAE46" stroke-miterlimit="10"/></g><path transform="matrix(-1.28691 1.28648 -1.28691 -1.28648 897.603 267.017)" fill="#FFAE46" d="M 214.700155 185.499847 L 216.300066 185.499578 C 216.410875 185.501077 216.503463 185.53901 216.582383 185.61793 C 216.659785 185.695332 216.699236 185.789437 216.700735 185.900247 L 216.699757 227.749903 C 216.701256 227.860712 216.661774 227.954831 216.582827 228.033777 C 216.505399 228.111205 216.409762 228.14917 216.300471 228.149188 L 214.70056 228.149458 C 214.58975 228.150995 214.495644 228.111544 214.416725 228.032624 C 214.339323 227.955222 214.299872 227.861117 214.299891 227.748789 L 214.299351 185.900651 C 214.300887 185.789841 214.338852 185.694205 214.41628 185.616777 C 214.495226 185.53783 214.590863 185.499866 214.700155 185.499847 Z M 214.700155 185.499847" stroke="#FFAE46" stroke-miterlimit="10"/><path transform="matrix(-1.28691 1.28648 -1.28691 -1.28648 415.312 71.62)" fill="#FFAE46" d="M 104.399149 76.900242 L 105.99906 76.899973 C 106.111387 76.899954 106.205493 76.939405 106.282895 77.016807 C 106.361815 77.095726 106.399748 77.188314 106.399729 77.300642 L 106.400269 119.148779 C 106.40025 119.261107 106.360768 119.355226 106.283339 119.432654 C 106.204393 119.511601 106.110274 119.551083 105.999465 119.549584 L 104.399554 119.549853 C 104.290262 119.549872 104.196156 119.510421 104.117237 119.431501 C 104.039835 119.354099 104.000384 119.259993 104.000403 119.150702 L 103.999863 77.299528 C 103.999881 77.190237 104.039364 77.096117 104.11831 77.017171 C 104.195738 76.939743 104.289857 76.900261 104.399149 76.900242 Z M 104.399149 76.900242" stroke="#FFAE46" stroke-miterlimit="10"/><path transform="matrix(-1.28691 -1.28648 1.28691 -1.28648 22.02 678.19)" fill="#FFAE46" d="M 104.099174 185.100454 L 105.700602 185.099206 C 105.809894 185.099224 105.904013 185.138706 105.982959 185.217653 C 106.060388 185.295081 106.09987 185.3892 106.101406 185.50001 L 106.099349 227.349665 C 106.100885 227.460475 106.061435 227.554581 105.982515 227.6335 C 105.905113 227.710902 105.811007 227.750353 105.700197 227.748816 L 104.098769 227.750064 C 103.989477 227.750046 103.895358 227.710564 103.81793 227.633136 C 103.738984 227.554189 103.699501 227.46007 103.699483 227.350778 L 103.700022 185.499605 C 103.700004 185.390313 103.739455 185.296208 103.818374 185.217288 C 103.895776 185.139886 103.989882 185.100435 104.099174 185.100454 Z M 104.099174 185.100454" stroke="#FFAE46" stroke-miterlimit="10"/><path transform="matrix(-1.28691 -1.28648 1.28691 -1.28648 501.396 475.333)" fill="#FFAE46" d="M 212.700171 74.798937 L 214.300082 74.799207 C 214.410892 74.800744 214.505011 74.840226 214.582439 74.917654 C 214.659867 74.995082 214.699349 75.089201 214.700886 75.200011 L 214.698828 117.049666 C 214.700365 117.160476 214.660914 117.254582 214.581995 117.333502 C 214.504593 117.410904 214.410487 117.450354 214.299677 117.448818 L 212.701284 117.450066 C 212.588957 117.450047 212.494838 117.410565 212.41741 117.333137 C 212.338463 117.254191 212.298981 117.160072 212.30048 117.049262 L 212.299502 75.199607 C 212.299484 75.090315 212.338934 74.996209 212.417854 74.917289 C 212.495256 74.839887 212.589362 74.800437 212.700171 74.798937 Z M 212.700171 74.798937" stroke="#FFAE46" stroke-miterlimit="10"/><path fill="#6B99D2" d="M 547.988281 1.027344 L 546.351562 1.027344 C 545.171875 1.03125 543.996094 1.0625 542.816406 1.121094 C 541.640625 1.183594 540.464844 1.273438 539.292969 1.390625 C 538.121094 1.507812 536.949219 1.65625 535.785156 1.828125 C 534.621094 2.003906 533.460938 2.207031 532.304688 2.441406 C 531.148438 2.671875 530 2.933594 528.855469 3.222656 C 527.714844 3.507812 526.578125 3.824219 525.449219 4.167969 C 524.324219 4.511719 523.203125 4.882812 522.09375 5.28125 C 520.988281 5.679688 519.886719 6.105469 518.800781 6.558594 C 517.710938 7.011719 516.632812 7.488281 515.570312 7.996094 C 514.503906 8.5 513.453125 9.03125 512.414062 9.585938 C 511.375 10.144531 510.347656 10.726562 509.339844 11.332031 C 508.328125 11.9375 507.332031 12.570312 506.355469 13.222656 C 505.375 13.878906 504.410156 14.558594 503.464844 15.261719 C 502.519531 15.960938 501.589844 16.6875 500.679688 17.4375 C 499.769531 18.183594 498.875 18.953125 498.003906 19.746094 C 497.128906 20.535156 496.277344 21.347656 495.441406 22.179688 C 494.609375 23.015625 493.796875 23.867188 493.003906 24.742188 C 492.214844 25.613281 491.445312 26.503906 490.695312 27.414062 C 489.949219 28.328125 489.222656 29.253906 488.519531 30.199219 C 487.816406 31.148438 487.136719 32.109375 486.480469 33.089844 C 485.828125 34.066406 485.195312 35.0625 484.589844 36.074219 C 483.980469 37.082031 483.402344 38.109375 482.84375 39.144531 C 482.289062 40.183594 481.757812 41.238281 481.25 42.300781 C 480.746094 43.367188 480.265625 44.441406 479.816406 45.53125 C 479.363281 46.617188 478.9375 47.714844 478.539062 48.824219 C 478.140625 49.933594 477.769531 51.050781 477.425781 52.179688 C 477.082031 53.304688 476.765625 54.441406 476.476562 55.582031 C 476.1875 56.726562 475.925781 57.875 475.695312 59.03125 C 475.464844 60.183594 475.257812 61.34375 475.085938 62.511719 C 474.910156 63.675781 474.761719 64.84375 474.644531 66.015625 C 474.527344 67.1875 474.4375 68.363281 474.375 69.539062 C 474.316406 70.71875 474.285156 71.894531 474.28125 73.074219 L 474.28125 499.710938 C 474.242188 506.453125 475.152344 513.0625 477.011719 519.542969 C 485.308594 513.59375 494.226562 508.804688 503.765625 505.167969 C 503.460938 503.363281 503.339844 501.542969 503.398438 499.710938 L 503.398438 73.074219 C 503.398438 71.667969 503.46875 70.265625 503.605469 68.863281 C 503.746094 67.464844 503.949219 66.074219 504.226562 64.695312 C 504.5 63.316406 504.839844 61.953125 505.25 60.609375 C 505.65625 59.261719 506.132812 57.941406 506.667969 56.640625 C 507.207031 55.34375 507.808594 54.074219 508.472656 52.832031 C 509.132812 51.59375 509.855469 50.386719 510.636719 49.21875 C 511.421875 48.050781 512.257812 46.921875 513.148438 45.832031 C 514.042969 44.746094 514.984375 43.707031 515.980469 42.710938 C 516.976562 41.71875 518.015625 40.773438 519.101562 39.882812 C 520.191406 38.988281 521.320312 38.152344 522.488281 37.371094 C 523.660156 36.589844 524.863281 35.867188 526.105469 35.207031 C 527.34375 34.542969 528.613281 33.941406 529.914062 33.40625 C 531.214844 32.867188 532.535156 32.394531 533.882812 31.984375 C 535.230469 31.578125 536.59375 31.234375 537.972656 30.960938 C 539.351562 30.6875 540.742188 30.480469 542.140625 30.34375 C 543.542969 30.203125 544.945312 30.136719 546.351562 30.136719 L 547.988281 30.136719 C 549.394531 30.136719 550.800781 30.203125 552.199219 30.34375 C 553.597656 30.480469 554.988281 30.6875 556.367188 30.960938 C 557.75 31.234375 559.109375 31.578125 560.457031 31.984375 C 561.804688 32.394531 563.125 32.867188 564.425781 33.40625 C 565.726562 33.941406 566.996094 34.542969 568.234375 35.207031 C 569.476562 35.867188 570.683594 36.589844 571.851562 37.371094 C 573.019531 38.152344 574.148438 38.988281 575.238281 39.882812 C 576.324219 40.773438 577.367188 41.71875 578.359375 42.710938 C 579.355469 43.707031 580.296875 44.746094 581.191406 45.832031 C 582.082031 46.921875 582.921875 48.050781 583.703125 49.21875 C 584.484375 50.386719 585.207031 51.59375 585.867188 52.832031 C 586.53125 54.074219 587.132812 55.34375 587.671875 56.640625 C 588.210938 57.941406 588.683594 59.261719 589.089844 60.609375 C 589.5 61.953125 589.839844 63.316406 590.113281 64.695312 C 590.390625 66.074219 590.59375 67.464844 590.734375 68.863281 C 590.871094 70.265625 590.941406 71.667969 590.941406 73.074219 L 590.941406 499.710938 C 591 501.542969 590.878906 503.363281 590.578125 505.167969 C 600.117188 508.804688 609.035156 513.59375 617.328125 519.542969 C 619.175781 513.058594 620.085938 506.449219 620.058594 499.710938 L 620.058594 73.074219 C 620.058594 71.894531 620.03125 70.714844 619.972656 69.539062 C 619.914062 68.359375 619.828125 67.183594 619.710938 66.011719 C 619.597656 64.835938 619.453125 63.667969 619.28125 62.5 C 619.105469 61.335938 618.90625 60.171875 618.675781 59.015625 C 618.445312 57.859375 618.1875 56.710938 617.898438 55.566406 C 617.613281 54.421875 617.300781 53.285156 616.957031 52.160156 C 616.613281 51.03125 616.246094 49.910156 615.847656 48.800781 C 615.449219 47.691406 615.023438 46.589844 614.574219 45.5 C 614.121094 44.414062 613.644531 43.335938 613.140625 42.269531 C 612.636719 41.203125 612.105469 40.148438 611.550781 39.109375 C 610.992188 38.070312 610.414062 37.042969 609.804688 36.035156 C 609.199219 35.023438 608.570312 34.027344 607.914062 33.046875 C 607.257812 32.066406 606.578125 31.101562 605.875 30.15625 C 605.175781 29.207031 604.449219 28.277344 603.699219 27.367188 C 602.953125 26.457031 602.183594 25.5625 601.390625 24.6875 C 600.597656 23.816406 599.785156 22.960938 598.949219 22.128906 C 598.117188 21.292969 597.261719 20.480469 596.390625 19.691406 C 595.515625 18.898438 594.621094 18.128906 593.710938 17.378906 C 592.796875 16.632812 591.867188 15.90625 590.921875 15.203125 C 589.972656 14.503906 589.011719 13.824219 588.03125 13.167969 C 587.046875 12.511719 586.050781 11.882812 585.039062 11.277344 C 584.027344 10.671875 583.003906 10.089844 581.964844 9.535156 C 580.921875 8.976562 579.871094 8.449219 578.804688 7.945312 C 577.738281 7.441406 576.660156 6.960938 575.570312 6.511719 C 574.480469 6.058594 573.378906 5.636719 572.269531 5.238281 C 571.160156 4.839844 570.039062 4.472656 568.910156 4.128906 C 567.78125 3.785156 566.644531 3.472656 565.5 3.183594 C 564.355469 2.898438 563.207031 2.640625 562.050781 2.410156 C 560.890625 2.179688 559.730469 1.980469 558.5625 1.804688 C 557.398438 1.632812 556.226562 1.488281 555.054688 1.375 C 553.878906 1.257812 552.703125 1.171875 551.527344 1.113281 C 550.347656 1.054688 549.167969 1.027344 547.988281 1.027344 Z M 547.988281 1.027344"/><g clip-path="url(#b)"><path fill="#6B99D2" d="M 620.058594 486.976562 C 610.835938 481.667969 601.132812 477.484375 590.941406 474.421875 L 590.941406 499.710938 C 591 501.542969 590.878906 503.363281 590.578125 505.167969 C 600.117188 508.804688 609.035156 513.59375 617.328125 519.542969 C 619.058594 520.769531 620.753906 522.042969 622.414062 523.363281 C 624.074219 524.679688 625.703125 526.042969 627.292969 527.445312 C 628.882812 528.851562 630.433594 530.292969 631.945312 531.78125 C 633.460938 533.265625 634.933594 534.789062 636.367188 536.351562 C 637.800781 537.914062 639.195312 539.515625 640.542969 541.148438 C 641.894531 542.785156 643.199219 544.457031 644.460938 546.160156 C 645.722656 547.867188 646.9375 549.601562 648.109375 551.371094 C 649.277344 553.140625 650.402344 554.9375 651.476562 556.765625 C 652.554688 558.59375 653.582031 560.445312 654.558594 562.328125 C 655.535156 564.210938 656.464844 566.117188 657.34375 568.046875 C 658.222656 569.976562 659.046875 571.929688 659.824219 573.902344 C 660.597656 575.875 661.320312 577.867188 661.992188 579.878906 C 662.664062 581.890625 663.28125 583.917969 663.84375 585.964844 C 664.40625 588.007812 664.917969 590.066406 665.371094 592.136719 C 665.828125 594.207031 666.230469 596.289062 666.574219 598.382812 C 666.921875 600.472656 667.210938 602.574219 667.449219 604.679688 C 667.683594 606.789062 667.863281 608.898438 667.988281 611.015625 C 668.113281 613.132812 668.183594 615.25 668.195312 617.371094 C 668.207031 619.492188 668.167969 621.613281 668.066406 623.730469 C 667.96875 625.847656 667.816406 627.960938 667.605469 630.074219 C 667.398438 632.183594 667.132812 634.285156 666.8125 636.382812 C 666.492188 638.476562 666.117188 640.566406 665.6875 642.640625 C 665.257812 644.71875 664.773438 646.78125 664.234375 648.832031 C 663.695312 650.882812 663.105469 652.917969 662.460938 654.9375 C 661.8125 656.957031 661.117188 658.960938 660.363281 660.945312 C 659.613281 662.925781 658.8125 664.890625 657.957031 666.832031 C 657.105469 668.769531 656.199219 670.6875 655.246094 672.582031 C 654.289062 674.476562 653.285156 676.34375 652.234375 678.183594 C 651.179688 680.023438 650.078125 681.835938 648.933594 683.621094 C 647.785156 685.402344 646.589844 687.152344 645.347656 688.875 C 644.109375 690.59375 642.824219 692.28125 641.496094 693.933594 C 640.164062 695.585938 638.792969 697.203125 637.378906 698.78125 C 635.964844 700.363281 634.511719 701.90625 633.015625 703.410156 C 631.519531 704.914062 629.988281 706.378906 628.414062 707.800781 C 626.84375 709.222656 625.234375 710.605469 623.589844 711.945312 C 621.945312 713.28125 620.265625 714.578125 618.550781 715.828125 C 616.839844 717.078125 615.09375 718.285156 613.316406 719.441406 C 611.542969 720.601562 609.734375 721.714844 607.902344 722.777344 C 606.066406 723.839844 604.207031 724.855469 602.316406 725.824219 C 600.429688 726.789062 598.515625 727.703125 596.578125 728.570312 C 594.644531 729.4375 592.6875 730.25 590.707031 731.011719 C 588.726562 731.777344 586.730469 732.488281 584.714844 733.144531 C 582.695312 733.800781 580.664062 734.40625 578.617188 734.957031 C 576.566406 735.507812 574.507812 736.003906 572.429688 736.449219 C 570.355469 736.890625 568.273438 737.277344 566.175781 737.609375 C 564.082031 737.945312 561.980469 738.222656 559.871094 738.445312 C 557.761719 738.667969 555.648438 738.832031 553.53125 738.945312 C 551.410156 739.054688 549.292969 739.113281 547.171875 739.113281 C 545.050781 739.113281 542.929688 739.054688 540.8125 738.945312 C 538.691406 738.832031 536.578125 738.667969 534.46875 738.445312 C 532.359375 738.222656 530.257812 737.945312 528.164062 737.609375 C 526.066406 737.277344 523.984375 736.890625 521.910156 736.449219 C 519.835938 736.003906 517.773438 735.507812 515.726562 734.957031 C 513.675781 734.40625 511.644531 733.800781 509.628906 733.144531 C 507.609375 732.488281 505.613281 731.777344 503.632812 731.011719 C 501.65625 730.25 499.695312 729.4375 497.761719 728.570312 C 495.824219 727.703125 493.910156 726.789062 492.023438 725.824219 C 490.136719 724.855469 488.273438 723.839844 486.4375 722.777344 C 484.605469 721.714844 482.796875 720.601562 481.023438 719.441406 C 479.246094 718.285156 477.5 717.078125 475.789062 715.828125 C 474.074219 714.578125 472.398438 713.285156 470.75 711.945312 C 469.105469 710.605469 467.5 709.222656 465.925781 707.800781 C 464.355469 706.378906 462.820312 704.914062 461.324219 703.410156 C 459.828125 701.90625 458.375 700.363281 456.960938 698.78125 C 455.546875 697.203125 454.175781 695.585938 452.847656 693.933594 C 451.515625 692.28125 450.230469 690.59375 448.992188 688.875 C 447.75 687.152344 446.558594 685.402344 445.410156 683.621094 C 444.261719 681.835938 443.160156 680.023438 442.105469 678.183594 C 441.054688 676.34375 440.050781 674.476562 439.09375 672.582031 C 438.140625 670.6875 437.234375 668.769531 436.382812 666.832031 C 435.527344 664.890625 434.726562 662.925781 433.976562 660.945312 C 433.226562 658.960938 432.527344 656.960938 431.882812 654.9375 C 431.234375 652.917969 430.644531 650.882812 430.105469 648.832031 C 429.566406 646.78125 429.082031 644.71875 428.652344 642.640625 C 428.222656 640.566406 427.847656 638.480469 427.527344 636.382812 C 427.207031 634.285156 426.945312 632.183594 426.734375 630.074219 C 426.523438 627.960938 426.371094 625.847656 426.273438 623.730469 C 426.175781 621.613281 426.132812 619.492188 426.144531 617.371094 C 426.15625 615.253906 426.226562 613.132812 426.351562 611.015625 C 426.476562 608.898438 426.65625 606.789062 426.890625 604.679688 C 427.128906 602.574219 427.417969 600.472656 427.765625 598.382812 C 428.109375 596.289062 428.511719 594.207031 428.96875 592.136719 C 429.421875 590.066406 429.933594 588.007812 430.496094 585.964844 C 431.0625 583.917969 431.679688 581.890625 432.347656 579.878906 C 433.019531 577.867188 433.742188 575.875 434.515625 573.902344 C 435.292969 571.929688 436.121094 569.976562 436.996094 568.046875 C 437.875 566.117188 438.804688 564.210938 439.78125 562.328125 C 440.761719 560.445312 441.789062 558.59375 442.863281 556.765625 C 443.9375 554.9375 445.0625 553.140625 446.230469 551.371094 C 447.402344 549.601562 448.617188 547.867188 449.878906 546.160156 C 451.140625 544.457031 452.449219 542.785156 453.796875 541.148438 C 455.148438 539.515625 456.539062 537.914062 457.972656 536.351562 C 459.40625 534.789062 460.878906 533.265625 462.394531 531.78125 C 463.90625 530.292969 465.460938 528.851562 467.050781 527.445312 C 468.640625 526.042969 470.265625 524.679688 471.925781 523.363281 C 473.585938 522.042969 475.28125 520.769531 477.011719 519.542969 C 485.308594 513.59375 494.226562 508.804688 503.765625 505.167969 C 503.460938 503.363281 503.339844 501.542969 503.398438 499.710938 L 503.398438 474.421875 C 493.277344 477.640625 483.570312 481.824219 474.28125 486.976562 C 471.878906 488.308594 469.515625 489.707031 467.1875 491.171875 C 464.863281 492.632812 462.578125 494.160156 460.335938 495.75 C 458.097656 497.335938 455.898438 498.984375 453.75 500.695312 C 451.597656 502.402344 449.496094 504.171875 447.441406 505.996094 C 445.386719 507.820312 443.382812 509.699219 441.433594 511.632812 C 439.480469 513.570312 437.585938 515.554688 435.742188 517.59375 C 433.902344 519.632812 432.117188 521.71875 430.390625 523.855469 C 428.664062 525.992188 426.996094 528.175781 425.386719 530.402344 C 423.78125 532.632812 422.234375 534.902344 420.753906 537.214844 C 419.269531 539.527344 417.851562 541.878906 416.5 544.269531 C 415.144531 546.660156 413.859375 549.085938 412.640625 551.546875 C 411.417969 554.007812 410.265625 556.5 409.183594 559.027344 C 408.101562 561.550781 407.085938 564.101562 406.144531 566.683594 C 405.199219 569.261719 404.328125 571.867188 403.527344 574.496094 C 402.730469 577.121094 402 579.769531 401.347656 582.4375 C 400.691406 585.105469 400.109375 587.789062 399.605469 590.488281 C 399.097656 593.1875 398.664062 595.902344 398.304688 598.625 C 397.945312 601.347656 397.664062 604.078125 397.457031 606.816406 C 397.246094 609.558594 397.113281 612.300781 397.054688 615.046875 C 397 617.792969 397.015625 620.539062 397.109375 623.285156 C 397.203125 626.027344 397.371094 628.769531 397.613281 631.503906 C 397.859375 634.242188 398.175781 636.96875 398.570312 639.6875 C 398.964844 642.40625 399.429688 645.113281 399.972656 647.804688 C 400.515625 650.5 401.128906 653.175781 401.820312 655.832031 C 402.507812 658.492188 403.269531 661.132812 404.105469 663.75 C 404.9375 666.367188 405.84375 668.957031 406.820312 671.527344 C 407.796875 674.09375 408.839844 676.632812 409.957031 679.144531 C 411.074219 681.652344 412.257812 684.132812 413.507812 686.578125 C 414.761719 689.023438 416.078125 691.429688 417.460938 693.804688 C 418.847656 696.175781 420.292969 698.511719 421.808594 700.804688 C 423.320312 703.097656 424.894531 705.347656 426.527344 707.554688 C 428.164062 709.761719 429.859375 711.921875 431.613281 714.035156 C 433.371094 716.152344 435.179688 718.214844 437.046875 720.230469 C 438.917969 722.246094 440.839844 724.207031 442.8125 726.117188 C 444.789062 728.023438 446.816406 729.878906 448.894531 731.675781 C 450.972656 733.476562 453.097656 735.214844 455.269531 736.894531 C 457.441406 738.578125 459.660156 740.199219 461.921875 741.757812 C 464.183594 743.316406 466.488281 744.8125 468.832031 746.246094 C 471.175781 747.679688 473.558594 749.046875 475.976562 750.351562 C 478.394531 751.652344 480.847656 752.886719 483.335938 754.054688 C 485.824219 755.222656 488.339844 756.320312 490.886719 757.351562 C 493.4375 758.382812 496.011719 759.339844 498.609375 760.230469 C 501.210938 761.117188 503.832031 761.933594 506.476562 762.679688 C 509.121094 763.421875 511.785156 764.09375 514.46875 764.691406 C 517.148438 765.289062 519.847656 765.816406 522.558594 766.265625 C 525.269531 766.714844 527.988281 767.089844 530.71875 767.390625 C 533.453125 767.691406 536.1875 767.917969 538.933594 768.070312 C 541.675781 768.21875 544.421875 768.296875 547.171875 768.296875 C 549.917969 768.296875 552.664062 768.21875 555.40625 768.070312 C 558.152344 767.917969 560.890625 767.691406 563.621094 767.390625 C 566.351562 767.089844 569.074219 766.714844 571.78125 766.265625 C 574.492188 765.816406 577.191406 765.289062 579.871094 764.691406 C 582.554688 764.09375 585.21875 763.421875 587.863281 762.679688 C 590.507812 761.933594 593.128906 761.117188 595.730469 760.230469 C 598.332031 759.339844 600.90625 758.382812 603.453125 757.351562 C 606 756.320312 608.515625 755.222656 611.003906 754.054688 C 613.492188 752.886719 615.945312 751.652344 618.363281 750.351562 C 620.78125 749.046875 623.164062 747.679688 625.507812 746.246094 C 627.851562 744.8125 630.15625 743.316406 632.417969 741.757812 C 634.679688 740.199219 636.898438 738.578125 639.070312 736.894531 C 641.242188 735.214844 643.367188 733.476562 645.445312 731.675781 C 647.523438 729.878906 649.550781 728.023438 651.527344 726.117188 C 653.503906 724.207031 655.421875 722.246094 657.292969 720.230469 C 659.160156 718.214844 660.972656 716.152344 662.726562 714.039062 C 664.480469 711.921875 666.175781 709.761719 667.8125 707.554688 C 669.445312 705.347656 671.019531 703.097656 672.535156 700.804688 C 674.046875 698.511719 675.492188 696.175781 676.878906 693.804688 C 678.261719 691.429688 679.578125 689.023438 680.832031 686.578125 C 682.082031 684.132812 683.265625 681.652344 684.382812 679.144531 C 685.5 676.632812 686.542969 674.09375 687.519531 671.527344 C 688.496094 668.957031 689.402344 666.367188 690.238281 663.75 C 691.070312 661.132812 691.832031 658.492188 692.519531 655.832031 C 693.210938 653.175781 693.824219 650.5 694.367188 647.804688 C 694.910156 645.113281 695.378906 642.40625 695.769531 639.6875 C 696.164062 636.96875 696.480469 634.242188 696.726562 631.507812 C 696.96875 628.769531 697.136719 626.027344 697.230469 623.285156 C 697.324219 620.539062 697.339844 617.792969 697.285156 615.046875 C 697.226562 612.300781 697.09375 609.558594 696.886719 606.816406 C 696.675781 604.078125 696.394531 601.347656 696.035156 598.625 C 695.675781 595.902344 695.242188 593.1875 694.738281 590.488281 C 694.230469 587.789062 693.648438 585.105469 692.992188 582.4375 C 692.339844 579.769531 691.613281 577.121094 690.8125 574.496094 C 690.011719 571.867188 689.140625 569.261719 688.195312 566.683594 C 687.253906 564.101562 686.238281 561.550781 685.15625 559.027344 C 684.074219 556.5 682.921875 554.007812 681.703125 551.546875 C 680.480469 549.085938 679.195312 546.660156 677.839844 544.269531 C 676.488281 541.878906 675.070312 539.527344 673.585938 537.214844 C 672.105469 534.902344 670.558594 532.632812 668.953125 530.402344 C 667.34375 528.175781 665.675781 525.992188 663.949219 523.855469 C 662.222656 521.71875 660.4375 519.632812 658.597656 517.59375 C 656.753906 515.554688 654.859375 513.570312 652.90625 511.632812 C 650.957031 509.699219 648.953125 507.820312 646.898438 505.996094 C 644.847656 504.171875 642.742188 502.402344 640.59375 500.695312 C 638.441406 498.984375 636.246094 497.335938 634.003906 495.75 C 631.761719 494.160156 629.476562 492.632812 627.152344 491.171875 C 624.824219 489.707031 622.460938 488.308594 620.058594 486.976562 Z M 620.058594 486.976562"/></g><path fill="#26477A" d="M 668.105469 617.96875 C 668.113281 620.550781 668.035156 623.132812 667.875 625.707031 C 667.710938 628.285156 667.46875 630.855469 667.144531 633.417969 C 666.820312 635.980469 666.414062 638.527344 665.925781 641.0625 C 665.4375 643.601562 664.867188 646.117188 664.21875 648.617188 C 663.566406 651.117188 662.839844 653.59375 662.03125 656.046875 C 661.222656 658.496094 660.335938 660.921875 659.371094 663.320312 C 658.410156 665.714844 657.371094 668.078125 656.253906 670.40625 C 655.140625 672.734375 653.953125 675.027344 652.691406 677.28125 C 651.429688 679.535156 650.09375 681.746094 648.691406 683.914062 C 647.289062 686.082031 645.816406 688.203125 644.277344 690.277344 C 642.738281 692.351562 641.136719 694.375 639.464844 696.34375 C 637.796875 698.316406 636.066406 700.230469 634.277344 702.09375 C 632.484375 703.953125 630.636719 705.753906 628.730469 707.496094 C 626.820312 709.238281 624.859375 710.917969 622.847656 712.535156 C 620.832031 714.152344 618.769531 715.703125 616.652344 717.1875 C 614.539062 718.671875 612.382812 720.085938 610.175781 721.433594 C 607.972656 722.78125 605.726562 724.054688 603.441406 725.257812 C 601.15625 726.460938 598.832031 727.585938 596.472656 728.640625 C 594.117188 729.695312 591.726562 730.671875 589.304688 731.574219 C 586.882812 732.476562 584.4375 733.296875 581.964844 734.042969 C 579.488281 734.785156 576.996094 735.449219 574.480469 736.035156 C 571.960938 736.621094 569.429688 737.125 566.882812 737.546875 C 564.332031 737.96875 561.773438 738.308594 559.203125 738.566406 C 556.632812 738.828125 554.058594 739.003906 551.476562 739.097656 C 548.894531 739.191406 546.3125 739.203125 543.730469 739.128906 C 541.148438 739.058594 538.570312 738.90625 535.996094 738.667969 C 533.425781 738.433594 530.863281 738.113281 528.3125 737.714844 C 525.757812 737.3125 523.222656 736.832031 520.699219 736.269531 C 518.179688 735.707031 515.679688 735.0625 513.199219 734.339844 C 510.71875 733.617188 508.265625 732.816406 505.835938 731.933594 C 503.40625 731.054688 501.007812 730.097656 498.640625 729.066406 C 496.273438 728.03125 493.941406 726.921875 491.648438 725.742188 C 489.351562 724.558594 487.09375 723.304688 484.878906 721.976562 C 482.660156 720.648438 480.492188 719.25 478.363281 717.785156 C 476.238281 716.320312 474.160156 714.785156 472.132812 713.1875 C 470.101562 711.589844 468.128906 709.925781 466.207031 708.199219 C 464.285156 706.472656 462.417969 704.6875 460.613281 702.84375 C 458.804688 701 457.058594 699.097656 455.371094 697.140625 C 453.6875 695.183594 452.066406 693.175781 450.507812 691.117188 C 448.949219 689.054688 447.460938 686.945312 446.039062 684.789062 C 444.617188 682.632812 443.265625 680.433594 441.984375 678.191406 C 440.703125 675.949219 439.496094 673.667969 438.359375 671.347656 C 437.226562 669.03125 436.164062 666.675781 435.179688 664.289062 C 434.195312 661.902344 433.289062 659.484375 432.460938 657.039062 C 431.632812 654.59375 430.878906 652.121094 430.210938 649.628906 C 429.539062 647.136719 428.945312 644.621094 428.4375 642.089844 C 427.925781 639.558594 427.496094 637.015625 427.152344 634.457031 C 426.804688 631.898438 426.539062 629.328125 426.355469 626.753906 C 426.171875 624.175781 426.070312 621.597656 426.054688 619.015625 C 426.035156 616.433594 426.101562 613.851562 426.25 611.273438 C 426.398438 608.695312 426.628906 606.125 426.941406 603.5625 C 427.25 601 427.644531 598.449219 428.121094 595.910156 C 428.597656 593.371094 429.152344 590.851562 429.789062 588.347656 C 430.429688 585.847656 431.144531 583.367188 431.941406 580.910156 C 432.738281 578.453125 433.609375 576.023438 434.5625 573.621094 C 435.511719 571.222656 436.542969 568.855469 437.644531 566.519531 C 438.746094 564.183594 439.925781 561.886719 441.175781 559.625 C 442.425781 557.367188 443.746094 555.148438 445.140625 552.972656 C 446.53125 550.800781 447.992188 548.671875 449.519531 546.589844 C 451.050781 544.507812 452.644531 542.476562 454.304688 540.496094 C 455.960938 538.519531 457.683594 536.59375 459.464844 534.722656 C 461.246094 532.855469 463.085938 531.042969 464.984375 529.292969 C 466.882812 527.539062 468.835938 525.851562 470.839844 524.222656 C 472.847656 522.597656 474.902344 521.035156 477.011719 519.542969 C 485.308594 513.59375 494.226562 508.804688 503.765625 505.167969 C 503.460938 503.363281 503.339844 501.542969 503.398438 499.710938 L 503.398438 73.074219 C 503.398438 71.667969 503.46875 70.265625 503.605469 68.863281 C 503.746094 67.464844 503.949219 66.074219 504.226562 64.695312 C 504.5 63.316406 504.839844 61.953125 505.25 60.609375 C 505.65625 59.261719 506.132812 57.941406 506.667969 56.640625 C 507.207031 55.34375 507.808594 54.074219 508.472656 52.832031 C 509.132812 51.59375 509.855469 50.386719 510.636719 49.21875 C 511.421875 48.050781 512.257812 46.921875 513.148438 45.832031 C 514.042969 44.746094 514.984375 43.707031 515.980469 42.710938 C 516.976562 41.71875 518.015625 40.773438 519.101562 39.882812 C 520.191406 38.988281 521.320312 38.152344 522.488281 37.371094 C 523.660156 36.589844 524.863281 35.867188 526.105469 35.207031 C 527.34375 34.542969 528.613281 33.941406 529.914062 33.40625 C 531.214844 32.867188 532.535156 32.394531 533.882812 31.984375 C 535.230469 31.578125 536.59375 31.234375 537.972656 30.960938 C 539.351562 30.6875 540.742188 30.480469 542.140625 30.34375 C 543.542969 30.203125 544.945312 30.136719 546.351562 30.136719 L 547.988281 30.136719 C 549.394531 30.136719 550.800781 30.203125 552.199219 30.34375 C 553.597656 30.480469 554.988281 30.6875 556.367188 30.960938 C 557.75 31.234375 559.109375 31.578125 560.457031 31.984375 C 561.804688 32.394531 563.125 32.867188 564.425781 33.40625 C 565.726562 33.941406 566.996094 34.542969 568.234375 35.207031 C 569.476562 35.867188 570.683594 36.589844 571.851562 37.371094 C 573.019531 38.152344 574.148438 38.988281 575.238281 39.882812 C 576.324219 40.773438 577.367188 41.71875 578.359375 42.710938 C 579.355469 43.707031 580.296875 44.746094 581.191406 45.832031 C 582.082031 46.921875 582.921875 48.050781 583.703125 49.21875 C 584.484375 50.386719 585.207031 51.59375 585.867188 52.832031 C 586.53125 54.074219 587.132812 55.34375 587.671875 56.640625 C 588.210938 57.941406 588.683594 59.261719 589.089844 60.609375 C 589.5 61.953125 589.839844 63.316406 590.113281 64.695312 C 590.390625 66.074219 590.59375 67.464844 590.734375 68.863281 C 590.871094 70.265625 590.941406 71.667969 590.941406 73.074219 L 590.941406 499.710938 C 591 501.542969 590.878906 503.363281 590.578125 505.167969 C 600.117188 508.804688 609.035156 513.59375 617.328125 519.542969 C 621.242188 522.324219 624.972656 525.328125 628.527344 528.554688 C 632.078125 531.785156 635.429688 535.210938 638.574219 538.835938 C 641.71875 542.460938 644.636719 546.261719 647.328125 550.238281 C 650.019531 554.210938 652.464844 558.328125 654.664062 562.59375 C 656.867188 566.859375 658.804688 571.242188 660.484375 575.738281 C 662.160156 580.234375 663.566406 584.8125 664.699219 589.476562 C 665.832031 594.140625 666.679688 598.855469 667.25 603.621094 C 667.820312 608.386719 668.105469 613.167969 668.105469 617.96875 Z M 668.105469 617.96875"/><path fill="#FFB544" d="M 654.640625 617.421875 C 654.640625 619.171875 654.597656 620.917969 654.511719 622.664062 C 654.425781 624.410156 654.296875 626.152344 654.125 627.890625 C 653.953125 629.628906 653.738281 631.363281 653.484375 633.09375 C 653.226562 634.820312 652.925781 636.542969 652.585938 638.257812 C 652.246094 639.972656 651.863281 641.675781 651.4375 643.371094 C 651.011719 645.066406 650.546875 646.75 650.039062 648.425781 C 649.53125 650.097656 648.984375 651.753906 648.394531 653.402344 C 647.804688 655.046875 647.175781 656.675781 646.507812 658.292969 C 645.835938 659.90625 645.128906 661.503906 644.382812 663.082031 C 643.632812 664.664062 642.847656 666.226562 642.023438 667.765625 C 641.199219 669.308594 640.339844 670.828125 639.441406 672.328125 C 638.539062 673.824219 637.605469 675.300781 636.632812 676.753906 C 635.664062 678.207031 634.65625 679.636719 633.617188 681.042969 C 632.574219 682.445312 631.5 683.824219 630.390625 685.171875 C 629.28125 686.523438 628.136719 687.847656 626.964844 689.140625 C 625.789062 690.4375 624.585938 691.703125 623.347656 692.9375 C 622.113281 694.175781 620.847656 695.378906 619.550781 696.554688 C 618.253906 697.726562 616.933594 698.867188 615.582031 699.976562 C 614.230469 701.085938 612.851562 702.160156 611.445312 703.203125 C 610.042969 704.242188 608.613281 705.25 607.160156 706.21875 C 605.707031 707.191406 604.230469 708.125 602.730469 709.023438 C 601.230469 709.921875 599.710938 710.785156 598.167969 711.609375 C 596.625 712.433594 595.0625 713.21875 593.484375 713.964844 C 591.902344 714.710938 590.304688 715.421875 588.691406 716.089844 C 587.074219 716.757812 585.445312 717.386719 583.796875 717.976562 C 582.152344 718.566406 580.492188 719.113281 578.820312 719.621094 C 577.144531 720.128906 575.460938 720.59375 573.765625 721.019531 C 572.070312 721.441406 570.363281 721.824219 568.648438 722.167969 C 566.933594 722.507812 565.210938 722.804688 563.484375 723.0625 C 561.753906 723.320312 560.019531 723.535156 558.277344 723.703125 C 556.539062 723.875 554.796875 724.003906 553.050781 724.089844 C 551.304688 724.175781 549.554688 724.21875 547.808594 724.21875 C 546.058594 724.21875 544.3125 724.175781 542.566406 724.089844 C 540.820312 724.003906 539.074219 723.875 537.335938 723.703125 C 535.597656 723.535156 533.859375 723.320312 532.132812 723.0625 C 530.402344 722.804688 528.679688 722.507812 526.964844 722.167969 C 525.25 721.824219 523.546875 721.441406 521.847656 721.019531 C 520.152344 720.59375 518.46875 720.128906 516.796875 719.621094 C 515.121094 719.113281 513.460938 718.566406 511.816406 717.976562 C 510.171875 717.386719 508.539062 716.757812 506.925781 716.089844 C 505.308594 715.421875 503.710938 714.710938 502.128906 713.964844 C 500.550781 713.21875 498.988281 712.433594 497.445312 711.609375 C 495.90625 710.785156 494.382812 709.921875 492.882812 709.023438 C 491.386719 708.125 489.910156 707.191406 488.453125 706.21875 C 487 705.25 485.570312 704.242188 484.167969 703.203125 C 482.761719 702.160156 481.386719 701.085938 480.035156 699.976562 C 478.683594 698.867188 477.359375 697.726562 476.0625 696.554688 C 474.769531 695.378906 473.5 694.175781 472.265625 692.9375 C 471.027344 691.703125 469.824219 690.4375 468.648438 689.140625 C 467.476562 687.847656 466.335938 686.523438 465.226562 685.171875 C 464.117188 683.824219 463.039062 682.445312 462 681.042969 C 460.957031 679.636719 459.949219 678.207031 458.980469 676.753906 C 458.007812 675.300781 457.074219 673.824219 456.175781 672.328125 C 455.277344 670.828125 454.414062 669.308594 453.589844 667.765625 C 452.765625 666.226562 451.980469 664.664062 451.230469 663.082031 C 450.484375 661.503906 449.777344 659.90625 449.105469 658.292969 C 448.4375 656.675781 447.808594 655.046875 447.21875 653.402344 C 446.632812 651.753906 446.082031 650.097656 445.574219 648.425781 C 445.066406 646.75 444.601562 645.066406 444.175781 643.371094 C 443.753906 641.675781 443.367188 639.972656 443.027344 638.257812 C 442.6875 636.542969 442.386719 634.820312 442.132812 633.09375 C 441.875 631.363281 441.660156 629.628906 441.488281 627.890625 C 441.316406 626.152344 441.191406 624.410156 441.105469 622.664062 C 441.019531 620.917969 440.976562 619.171875 440.976562 617.421875 C 440.976562 615.675781 441.019531 613.929688 441.105469 612.183594 C 441.191406 610.4375 441.316406 608.695312 441.488281 606.953125 C 441.660156 605.214844 441.875 603.480469 442.132812 601.753906 C 442.386719 600.023438 442.6875 598.300781 443.027344 596.589844 C 443.367188 594.875 443.753906 593.167969 444.175781 591.472656 C 444.601562 589.777344 445.066406 588.09375 445.574219 586.421875 C 446.082031 584.75 446.632812 583.089844 447.21875 581.445312 C 447.808594 579.796875 448.4375 578.167969 449.105469 576.554688 C 449.777344 574.9375 450.484375 573.339844 451.230469 571.761719 C 451.980469 570.183594 452.765625 568.621094 453.589844 567.078125 C 454.414062 565.539062 455.277344 564.019531 456.175781 562.519531 C 457.074219 561.019531 458.007812 559.542969 458.980469 558.089844 C 459.949219 556.636719 460.957031 555.207031 462 553.804688 C 463.039062 552.402344 464.117188 551.023438 465.226562 549.671875 C 466.335938 548.320312 467.476562 546.996094 468.648438 545.703125 C 469.824219 544.40625 471.027344 543.140625 472.265625 541.90625 C 473.5 540.671875 474.769531 539.464844 476.0625 538.292969 C 477.359375 537.117188 478.683594 535.976562 480.035156 534.867188 C 481.386719 533.757812 482.761719 532.683594 484.167969 531.644531 C 485.570312 530.601562 487 529.597656 488.453125 528.625 C 489.910156 527.652344 491.386719 526.71875 492.882812 525.820312 C 494.382812 524.921875 495.90625 524.0625 497.445312 523.238281 C 498.988281 522.414062 500.550781 521.628906 502.128906 520.878906 C 503.710938 520.132812 505.308594 519.425781 506.925781 518.757812 C 508.539062 518.085938 510.171875 517.457031 511.816406 516.871094 C 513.460938 516.28125 515.121094 515.734375 516.796875 515.226562 C 518.46875 514.71875 520.152344 514.253906 521.847656 513.828125 C 523.546875 513.402344 525.25 513.019531 526.964844 512.679688 C 528.679688 512.339844 530.402344 512.039062 532.132812 511.78125 C 533.859375 511.527344 535.597656 511.3125 537.335938 511.140625 C 539.074219 510.96875 540.820312 510.839844 542.566406 510.753906 C 544.3125 510.667969 546.058594 510.625 547.808594 510.625 C 549.554688 510.625 551.304688 510.667969 553.050781 510.753906 C 554.796875 510.839844 556.539062 510.96875 558.277344 511.140625 C 560.019531 511.3125 561.753906 511.527344 563.484375 511.78125 C 565.210938 512.039062 566.933594 512.339844 568.648438 512.679688 C 570.363281 513.019531 572.070312 513.402344 573.765625 513.828125 C 575.460938 514.253906 577.144531 514.71875 578.820312 515.226562 C 580.492188 515.734375 582.152344 516.28125 583.796875 516.871094 C 585.445312 517.457031 587.074219 518.085938 588.691406 518.757812 C 590.304688 519.425781 591.902344 520.132812 593.484375 520.878906 C 595.0625 521.628906 596.625 522.414062 598.167969 523.238281 C 599.710938 524.0625 601.230469 524.921875 602.730469 525.820312 C 604.230469 526.71875 605.707031 527.652344 607.160156 528.625 C 608.613281 529.597656 610.042969 530.601562 611.445312 531.644531 C 612.851562 532.683594 614.230469 533.757812 615.582031 534.867188 C 616.933594 535.976562 618.253906 537.117188 619.550781 538.292969 C 620.847656 539.464844 622.113281 540.671875 623.347656 541.90625 C 624.585938 543.140625 625.789062 544.40625 626.964844 545.703125 C 628.136719 546.996094 629.28125 548.320312 630.390625 549.671875 C 631.5 551.023438 632.574219 552.402344 633.617188 553.804688 C 634.65625 555.207031 635.664062 556.636719 636.632812 558.089844 C 637.605469 559.542969 638.539062 561.019531 639.441406 562.519531 C 640.339844 564.019531 641.199219 565.539062 642.023438 567.078125 C 642.847656 568.621094 643.632812 570.183594 644.382812 571.761719 C 645.128906 573.339844 645.835938 574.9375 646.507812 576.554688 C 647.175781 578.167969 647.804688 579.796875 648.394531 581.445312 C 648.984375 583.089844 649.53125 584.75 650.039062 586.421875 C 650.546875 588.09375 651.011719 589.777344 651.4375 591.472656 C 651.863281 593.167969 652.246094 594.875 652.585938 596.589844 C 652.925781 598.300781 653.226562 600.023438 653.484375 601.753906 C 653.738281 603.480469 653.953125 605.214844 654.125 606.953125 C 654.296875 608.695312 654.425781 610.4375 654.511719 612.183594 C 654.597656 613.929688 654.640625 615.675781 654.640625 617.421875 Z M 654.640625 617.421875"/><path fill="#FFB544" d="M 515.777344 163.675781 L 579.292969 163.675781 L 579.292969 529.585938 L 515.777344 529.585938 Z M 515.777344 163.675781"/></svg>