<svg xmlns="http://www.w3.org/2000/svg" width="224.88" viewBox="0 0 224.88 127.5" height="127.5" version="1.0"><defs><clipPath id="a"><path d="M 41.65625 0.46875 L 143 0.46875 L 143 61 L 41.65625 61 Z M 41.65625 0.46875"/></clipPath><clipPath id="b"><path d="M 97 25 L 182.851562 25 L 182.851562 77 L 97 77 Z M 97 25"/></clipPath><clipPath id="c"><path d="M 66 84 L 139 84 L 139 126.722656 L 66 126.722656 Z M 66 84"/></clipPath></defs><g clip-path="url(#a)"><path fill="#26477A" d="M 129.324219 34.410156 L 128.9375 34.410156 C 129.417969 32.847656 129.65625 31.242188 129.648438 29.605469 C 129.648438 28.054688 129.433594 26.535156 129.003906 25.046875 C 128.570312 23.558594 127.941406 22.164062 127.113281 20.855469 C 126.285156 19.546875 125.292969 18.378906 124.136719 17.355469 C 122.976562 16.332031 121.699219 15.488281 120.300781 14.832031 C 118.90625 14.171875 117.445312 13.722656 115.917969 13.480469 C 114.394531 13.238281 112.867188 13.214844 111.335938 13.410156 C 109.804688 13.605469 108.332031 14.011719 106.914062 14.628906 C 105.5 15.246094 104.195312 16.046875 103.007812 17.035156 C 102.726562 15.777344 102.335938 14.554688 101.835938 13.367188 C 101.332031 12.179688 100.726562 11.050781 100.015625 9.976562 C 99.308594 8.898438 98.507812 7.898438 97.617188 6.96875 C 96.726562 6.042969 95.757812 5.203125 94.714844 4.453125 C 93.667969 3.699219 92.566406 3.050781 91.402344 2.503906 C 90.238281 1.957031 89.035156 1.519531 87.792969 1.191406 C 86.550781 0.867188 85.289062 0.65625 84.007812 0.558594 C 82.726562 0.464844 81.449219 0.488281 80.171875 0.628906 C 78.894531 0.769531 77.644531 1.023438 76.414062 1.394531 C 75.183594 1.765625 73.996094 2.246094 72.851562 2.832031 C 71.710938 3.421875 70.628906 4.109375 69.613281 4.898438 C 68.59375 5.683594 67.65625 6.558594 66.800781 7.515625 C 65.941406 8.476562 65.175781 9.503906 64.507812 10.605469 C 63.835938 11.707031 63.269531 12.855469 62.808594 14.0625 C 62.347656 15.265625 62 16.5 61.765625 17.769531 C 61.53125 19.035156 61.410156 20.3125 61.410156 21.605469 C 61.417969 22.960938 61.546875 24.300781 61.796875 25.632812 C 60.929688 25.511719 60.054688 25.453125 59.179688 25.457031 C 58.214844 25.457031 57.261719 25.539062 56.3125 25.703125 C 55.363281 25.863281 54.433594 26.101562 53.519531 26.414062 C 52.609375 26.730469 51.730469 27.117188 50.886719 27.578125 C 50.039062 28.039062 49.234375 28.566406 48.472656 29.15625 C 47.714844 29.75 47.007812 30.402344 46.351562 31.113281 C 45.699219 31.824219 45.109375 32.582031 44.578125 33.390625 C 44.050781 34.195312 43.589844 35.042969 43.199219 35.925781 C 42.808594 36.808594 42.492188 37.71875 42.25 38.65625 C 42.011719 39.589844 41.847656 40.542969 41.761719 41.503906 C 41.675781 42.46875 41.667969 43.429688 41.742188 44.394531 C 41.816406 45.359375 41.964844 46.308594 42.195312 47.25 C 42.421875 48.1875 42.726562 49.101562 43.105469 49.992188 C 43.480469 50.882812 43.929688 51.734375 44.449219 52.546875 C 44.96875 53.363281 45.546875 54.128906 46.191406 54.847656 C 46.835938 55.566406 47.535156 56.226562 48.285156 56.832031 C 49.039062 57.433594 49.835938 57.972656 50.675781 58.445312 C 52.859375 59.917969 55.269531 60.65625 57.902344 60.652344 L 129.324219 60.652344 C 130.179688 60.652344 131.03125 60.566406 131.871094 60.394531 C 132.714844 60.226562 133.53125 59.976562 134.324219 59.644531 C 135.117188 59.316406 135.871094 58.910156 136.585938 58.429688 C 137.296875 57.953125 137.957031 57.40625 138.566406 56.796875 C 139.171875 56.1875 139.714844 55.523438 140.191406 54.808594 C 140.667969 54.09375 141.074219 53.335938 141.402344 52.539062 C 141.730469 51.742188 141.980469 50.921875 142.148438 50.078125 C 142.316406 49.234375 142.402344 48.378906 142.40625 47.519531 C 142.402344 46.65625 142.316406 45.804688 142.144531 44.960938 C 141.972656 44.117188 141.722656 43.296875 141.394531 42.503906 C 141.0625 41.710938 140.660156 40.957031 140.179688 40.242188 C 139.703125 39.527344 139.160156 38.863281 138.554688 38.257812 C 137.949219 37.648438 137.289062 37.105469 136.574219 36.628906 C 135.863281 36.148438 135.109375 35.746094 134.316406 35.417969 C 133.527344 35.085938 132.710938 34.835938 131.871094 34.667969 C 131.027344 34.5 130.179688 34.414062 129.324219 34.410156 Z M 129.324219 34.410156"/></g><path fill="#6B99D2" d="M 129.144531 73.96875 L 128.847656 73.96875 C 129.21875 72.742188 129.40625 71.488281 129.410156 70.207031 C 129.410156 68.996094 129.242188 67.808594 128.902344 66.648438 C 128.566406 65.484375 128.074219 64.394531 127.425781 63.375 C 126.78125 62.351562 126.003906 61.441406 125.097656 60.644531 C 124.191406 59.84375 123.195312 59.1875 122.101562 58.671875 C 121.011719 58.160156 119.871094 57.808594 118.679688 57.621094 C 117.488281 57.433594 116.292969 57.417969 115.097656 57.574219 C 113.902344 57.726562 112.75 58.046875 111.644531 58.527344 C 110.542969 59.011719 109.523438 59.640625 108.597656 60.414062 C 108.390625 59.425781 108.089844 58.460938 107.707031 57.523438 C 107.320312 56.589844 106.851562 55.699219 106.300781 54.847656 C 105.753906 54 105.128906 53.207031 104.433594 52.472656 C 103.742188 51.738281 102.984375 51.074219 102.167969 50.480469 C 101.351562 49.886719 100.488281 49.375 99.574219 48.941406 C 98.664062 48.507812 97.722656 48.160156 96.746094 47.898438 C 95.769531 47.640625 94.78125 47.472656 93.773438 47.398438 C 92.769531 47.320312 91.765625 47.335938 90.761719 47.445312 C 89.761719 47.554688 88.777344 47.757812 87.808594 48.050781 C 86.84375 48.339844 85.914062 48.71875 85.015625 49.183594 C 84.121094 49.648438 83.273438 50.191406 82.476562 50.8125 C 81.679688 51.433594 80.945312 52.121094 80.277344 52.878906 C 79.605469 53.632812 79.011719 54.445312 78.488281 55.3125 C 77.96875 56.179688 77.53125 57.085938 77.175781 58.035156 C 76.820312 58.984375 76.554688 59.957031 76.378906 60.953125 C 76.203125 61.949219 76.121094 62.953125 76.128906 63.96875 C 76.136719 65.03125 76.238281 66.085938 76.425781 67.132812 C 75.746094 67.011719 75.0625 66.949219 74.375 66.953125 C 73.621094 66.949219 72.871094 67.011719 72.125 67.132812 C 71.382812 67.257812 70.652344 67.4375 69.9375 67.683594 C 69.222656 67.925781 68.535156 68.226562 67.871094 68.585938 C 67.203125 68.945312 66.574219 69.355469 65.976562 69.816406 C 65.378906 70.28125 64.824219 70.789062 64.3125 71.34375 C 63.800781 71.898438 63.335938 72.492188 62.917969 73.125 C 62.503906 73.757812 62.144531 74.417969 61.835938 75.113281 C 61.53125 75.804688 61.285156 76.515625 61.09375 77.25 C 60.90625 77.984375 60.777344 78.726562 60.710938 79.480469 C 60.648438 80.234375 60.644531 80.992188 60.699219 81.746094 C 60.757812 82.5 60.878906 83.246094 61.058594 83.980469 C 61.242188 84.71875 61.480469 85.433594 61.78125 86.128906 C 62.078125 86.824219 62.433594 87.488281 62.839844 88.125 C 63.25 88.761719 63.707031 89.359375 64.214844 89.921875 C 64.722656 90.480469 65.273438 90.996094 65.863281 91.464844 C 66.457031 91.933594 67.082031 92.351562 67.742188 92.71875 C 69.449219 93.878906 71.332031 94.457031 73.394531 94.449219 L 129.144531 94.449219 C 129.816406 94.449219 130.480469 94.382812 131.136719 94.253906 C 131.792969 94.121094 132.433594 93.925781 133.050781 93.671875 C 133.671875 93.414062 134.261719 93.097656 134.816406 92.722656 C 135.375 92.351562 135.890625 91.925781 136.367188 91.453125 C 136.839844 90.976562 137.265625 90.460938 137.636719 89.898438 C 138.011719 89.339844 138.328125 88.75 138.585938 88.128906 C 138.84375 87.507812 139.039062 86.867188 139.171875 86.207031 C 139.304688 85.546875 139.371094 84.882812 139.371094 84.207031 C 139.371094 83.535156 139.304688 82.871094 139.171875 82.210938 C 139.039062 81.550781 138.84375 80.910156 138.585938 80.289062 C 138.328125 79.667969 138.011719 79.078125 137.636719 78.519531 C 137.265625 77.957031 136.839844 77.441406 136.367188 76.964844 C 135.890625 76.492188 135.375 76.066406 134.816406 75.695312 C 134.261719 75.320312 133.671875 75.003906 133.050781 74.746094 C 132.433594 74.492188 131.792969 74.296875 131.136719 74.164062 C 130.480469 74.035156 129.816406 73.96875 129.144531 73.96875 Z M 129.144531 73.96875"/><path fill="#26477A" d="M 129.945312 75.550781 L 129.648438 75.550781 C 130.011719 74.332031 130.1875 73.089844 130.183594 71.820312 C 130.183594 70.609375 130.015625 69.425781 129.679688 68.265625 C 129.34375 67.101562 128.851562 66.011719 128.207031 64.992188 C 127.5625 63.972656 126.789062 63.0625 125.882812 62.261719 C 124.980469 61.460938 123.984375 60.804688 122.894531 60.289062 C 121.804688 59.773438 120.667969 59.421875 119.476562 59.234375 C 118.289062 59.042969 117.097656 59.023438 115.902344 59.175781 C 114.707031 59.328125 113.554688 59.644531 112.449219 60.121094 C 111.347656 60.601562 110.328125 61.226562 109.402344 61.996094 C 109.175781 61.019531 108.867188 60.070312 108.472656 59.148438 C 108.078125 58.226562 107.601562 57.351562 107.046875 56.515625 C 106.492188 55.683594 105.867188 54.90625 105.171875 54.1875 C 104.476562 53.464844 103.71875 52.816406 102.90625 52.234375 C 102.09375 51.652344 101.234375 51.148438 100.328125 50.726562 C 99.421875 50.300781 98.488281 49.964844 97.519531 49.710938 C 96.554688 49.457031 95.574219 49.292969 94.574219 49.21875 C 93.578125 49.148438 92.585938 49.164062 91.59375 49.273438 C 90.597656 49.382812 89.625 49.582031 88.667969 49.867188 C 87.710938 50.15625 86.785156 50.527344 85.898438 50.980469 C 85.007812 51.4375 84.164062 51.972656 83.371094 52.582031 C 82.578125 53.191406 81.847656 53.867188 81.179688 54.613281 C 80.507812 55.355469 79.910156 56.152344 79.386719 57.007812 C 78.859375 57.859375 78.417969 58.753906 78.054688 59.6875 C 77.691406 60.625 77.414062 61.582031 77.226562 62.566406 C 77.039062 63.554688 76.9375 64.546875 76.929688 65.550781 C 76.925781 66.613281 77.023438 67.667969 77.226562 68.714844 C 76.546875 68.621094 75.863281 68.570312 75.175781 68.566406 C 74.425781 68.566406 73.679688 68.632812 72.9375 68.757812 C 72.195312 68.882812 71.46875 69.070312 70.757812 69.316406 C 70.046875 69.5625 69.363281 69.863281 68.703125 70.222656 C 68.039062 70.582031 67.414062 70.996094 66.820312 71.457031 C 66.226562 71.921875 65.671875 72.429688 65.164062 72.984375 C 64.652344 73.535156 64.191406 74.128906 63.777344 74.757812 C 63.363281 75.390625 63.003906 76.050781 62.699219 76.738281 C 62.394531 77.429688 62.148438 78.140625 61.957031 78.871094 C 61.769531 79.601562 61.640625 80.34375 61.574219 81.09375 C 61.507812 81.84375 61.5 82.597656 61.554688 83.351562 C 61.613281 84.101562 61.730469 84.847656 61.90625 85.578125 C 62.082031 86.3125 62.320312 87.027344 62.613281 87.722656 C 62.910156 88.414062 63.257812 89.082031 63.660156 89.71875 C 64.066406 90.355469 64.519531 90.953125 65.019531 91.515625 C 65.523438 92.078125 66.066406 92.59375 66.652344 93.066406 C 67.238281 93.539062 67.859375 93.960938 68.515625 94.328125 C 70.238281 95.476562 72.128906 96.054688 74.195312 96.0625 L 129.945312 96.0625 C 130.617188 96.058594 131.28125 95.992188 131.9375 95.859375 C 132.59375 95.726562 133.234375 95.53125 133.851562 95.269531 C 134.472656 95.011719 135.058594 94.695312 135.617188 94.320312 C 136.171875 93.945312 136.6875 93.519531 137.160156 93.042969 C 137.632812 92.566406 138.054688 92.046875 138.429688 91.488281 C 138.800781 90.925781 139.113281 90.335938 139.371094 89.714844 C 139.625 89.09375 139.820312 88.453125 139.949219 87.792969 C 140.082031 87.132812 140.144531 86.464844 140.144531 85.792969 C 140.144531 85.121094 140.078125 84.453125 139.945312 83.796875 C 139.8125 83.136719 139.617188 82.496094 139.363281 81.878906 C 139.105469 81.257812 138.789062 80.667969 138.417969 80.109375 C 138.046875 79.550781 137.625 79.035156 137.148438 78.558594 C 136.675781 78.085938 136.164062 77.660156 135.605469 77.285156 C 135.050781 76.914062 134.464844 76.597656 133.84375 76.339844 C 133.226562 76.082031 132.589844 75.886719 131.933594 75.753906 C 131.277344 75.621094 130.617188 75.554688 129.945312 75.550781 Z M 129.945312 75.550781"/><path fill="#6B99D2" d="M 172.554688 91.136719 L 172.316406 91.136719 C 172.59375 90.191406 172.734375 89.222656 172.734375 88.238281 C 172.734375 87.300781 172.601562 86.378906 172.339844 85.476562 C 172.078125 84.578125 171.699219 83.730469 171.195312 82.9375 C 170.695312 82.144531 170.09375 81.4375 169.394531 80.816406 C 168.691406 80.195312 167.917969 79.683594 167.074219 79.285156 C 166.226562 78.882812 165.34375 78.609375 164.417969 78.460938 C 163.496094 78.3125 162.570312 78.296875 161.640625 78.414062 C 160.714844 78.53125 159.820312 78.773438 158.960938 79.144531 C 158.101562 79.515625 157.3125 80 156.589844 80.597656 C 156.421875 79.832031 156.1875 79.089844 155.882812 78.367188 C 155.578125 77.644531 155.214844 76.957031 154.785156 76.300781 C 154.355469 75.648438 153.871094 75.039062 153.332031 74.472656 C 152.789062 73.910156 152.203125 73.398438 151.570312 72.941406 C 150.933594 72.484375 150.265625 72.089844 149.558594 71.757812 C 148.855469 71.421875 148.125 71.15625 147.367188 70.957031 C 146.613281 70.757812 145.847656 70.628906 145.070312 70.574219 C 144.292969 70.515625 143.515625 70.527344 142.738281 70.613281 C 141.964844 70.699219 141.203125 70.855469 140.457031 71.082031 C 139.707031 71.304688 138.988281 71.597656 138.292969 71.957031 C 137.601562 72.316406 136.945312 72.734375 136.328125 73.214844 C 135.710938 73.691406 135.140625 74.222656 134.621094 74.808594 C 134.101562 75.390625 133.640625 76.019531 133.234375 76.6875 C 132.828125 77.355469 132.488281 78.054688 132.210938 78.789062 C 131.929688 79.519531 131.722656 80.273438 131.582031 81.042969 C 131.441406 81.8125 131.371094 82.589844 131.375 83.371094 C 131.375 84.195312 131.457031 85.011719 131.613281 85.820312 C 131.089844 85.734375 130.566406 85.695312 130.035156 85.703125 C 129.449219 85.699219 128.867188 85.742188 128.289062 85.835938 C 127.707031 85.929688 127.140625 86.070312 126.585938 86.257812 C 126.027344 86.445312 125.492188 86.675781 124.972656 86.953125 C 124.457031 87.230469 123.964844 87.550781 123.5 87.90625 C 123.035156 88.265625 122.601562 88.660156 122.203125 89.09375 C 121.800781 89.523438 121.441406 89.984375 121.117188 90.476562 C 120.792969 90.964844 120.511719 91.480469 120.273438 92.019531 C 120.035156 92.554688 119.839844 93.109375 119.691406 93.679688 C 119.546875 94.25 119.445312 94.828125 119.394531 95.414062 C 119.34375 96.003906 119.339844 96.589844 119.382812 97.175781 C 119.429688 97.761719 119.519531 98.34375 119.660156 98.914062 C 119.800781 99.488281 119.988281 100.042969 120.222656 100.582031 C 120.453125 101.125 120.730469 101.640625 121.046875 102.136719 C 121.363281 102.632812 121.722656 103.097656 122.117188 103.53125 C 122.511719 103.96875 122.9375 104.367188 123.398438 104.734375 C 123.859375 105.097656 124.347656 105.421875 124.863281 105.703125 C 126.191406 106.613281 127.65625 107.0625 129.261719 107.046875 L 172.554688 107.046875 C 173.074219 107.046875 173.589844 106.992188 174.097656 106.890625 C 174.605469 106.785156 175.097656 106.636719 175.578125 106.433594 C 176.058594 106.234375 176.511719 105.988281 176.941406 105.699219 C 177.375 105.410156 177.773438 105.082031 178.140625 104.714844 C 178.507812 104.34375 178.835938 103.945312 179.125 103.511719 C 179.410156 103.078125 179.65625 102.621094 179.855469 102.140625 C 180.054688 101.660156 180.207031 101.164062 180.308594 100.652344 C 180.410156 100.144531 180.464844 99.628906 180.464844 99.105469 C 180.464844 98.585938 180.414062 98.066406 180.3125 97.554688 C 180.210938 97.042969 180.0625 96.546875 179.863281 96.0625 C 179.664062 95.582031 179.421875 95.121094 179.132812 94.6875 C 178.84375 94.253906 178.519531 93.851562 178.152344 93.480469 C 177.785156 93.109375 177.382812 92.78125 176.953125 92.488281 C 176.519531 92.199219 176.066406 91.953125 175.585938 91.75 C 175.105469 91.550781 174.609375 91.398438 174.101562 91.292969 C 173.589844 91.191406 173.074219 91.136719 172.554688 91.136719 Z M 172.554688 91.136719"/><path fill="#26477A" d="M 173.359375 91.941406 L 173.089844 91.941406 C 173.394531 90.988281 173.542969 90.015625 173.539062 89.015625 C 173.539062 88.367188 173.472656 87.722656 173.347656 87.085938 C 173.222656 86.453125 173.035156 85.832031 172.789062 85.234375 C 172.539062 84.632812 172.238281 84.066406 171.878906 83.527344 C 171.519531 82.984375 171.113281 82.488281 170.65625 82.027344 C 170.199219 81.570312 169.699219 81.160156 169.164062 80.800781 C 168.625 80.4375 168.058594 80.132812 167.460938 79.886719 C 166.863281 79.636719 166.25 79.449219 165.617188 79.324219 C 164.980469 79.195312 164.339844 79.132812 163.695312 79.132812 C 162.542969 79.125 161.425781 79.316406 160.34375 79.707031 C 159.257812 80.097656 158.273438 80.660156 157.390625 81.402344 C 157.222656 80.636719 156.988281 79.894531 156.6875 79.171875 C 156.382812 78.449219 156.015625 77.761719 155.585938 77.109375 C 155.15625 76.453125 154.671875 75.84375 154.132812 75.28125 C 153.59375 74.714844 153.003906 74.203125 152.371094 73.746094 C 151.738281 73.289062 151.066406 72.894531 150.363281 72.5625 C 149.65625 72.230469 148.925781 71.960938 148.171875 71.765625 C 147.417969 71.566406 146.652344 71.4375 145.871094 71.378906 C 145.09375 71.320312 144.316406 71.335938 143.542969 71.421875 C 142.765625 71.503906 142.003906 71.660156 141.257812 71.886719 C 140.511719 72.113281 139.792969 72.40625 139.097656 72.761719 C 138.402344 73.121094 137.75 73.539062 137.132812 74.019531 C 136.515625 74.5 135.945312 75.03125 135.425781 75.613281 C 134.90625 76.195312 134.441406 76.824219 134.035156 77.492188 C 133.632812 78.160156 133.289062 78.863281 133.011719 79.59375 C 132.734375 80.328125 132.523438 81.078125 132.386719 81.847656 C 132.246094 82.617188 132.175781 83.394531 132.175781 84.179688 C 132.179688 85.003906 132.261719 85.820312 132.414062 86.628906 C 131.882812 86.542969 131.347656 86.5 130.808594 86.507812 C 130.222656 86.503906 129.640625 86.550781 129.0625 86.644531 C 128.484375 86.742188 127.917969 86.882812 127.363281 87.070312 C 126.808594 87.261719 126.273438 87.492188 125.757812 87.773438 C 125.238281 88.050781 124.75 88.367188 124.285156 88.726562 C 123.820312 89.085938 123.390625 89.484375 122.992188 89.914062 C 122.59375 90.34375 122.230469 90.804688 121.910156 91.296875 C 121.585938 91.789062 121.308594 92.300781 121.070312 92.839844 C 120.832031 93.378906 120.640625 93.929688 120.492188 94.5 C 120.347656 95.070312 120.246094 95.648438 120.195312 96.234375 C 120.144531 96.820312 120.140625 97.40625 120.1875 97.992188 C 120.234375 98.582031 120.328125 99.160156 120.46875 99.730469 C 120.609375 100.300781 120.796875 100.855469 121.027344 101.394531 C 121.261719 101.9375 121.535156 102.453125 121.851562 102.949219 C 122.171875 103.441406 122.527344 103.90625 122.921875 104.339844 C 123.316406 104.777344 123.742188 105.175781 124.203125 105.539062 C 124.664062 105.902344 125.152344 106.226562 125.664062 106.511719 C 126.988281 107.398438 128.445312 107.847656 130.035156 107.855469 L 173.359375 107.855469 C 173.878906 107.851562 174.394531 107.800781 174.902344 107.695312 C 175.414062 107.59375 175.90625 107.441406 176.386719 107.238281 C 176.867188 107.039062 177.324219 106.792969 177.753906 106.5 C 178.1875 106.207031 178.585938 105.878906 178.953125 105.507812 C 179.320312 105.136719 179.648438 104.738281 179.9375 104.300781 C 180.226562 103.867188 180.46875 103.410156 180.667969 102.925781 C 180.867188 102.445312 181.015625 101.945312 181.117188 101.433594 C 181.21875 100.921875 181.269531 100.40625 181.269531 99.882812 C 181.265625 99.363281 181.214844 98.847656 181.113281 98.335938 C 181.007812 97.824219 180.859375 97.328125 180.660156 96.847656 C 180.457031 96.367188 180.214844 95.910156 179.925781 95.476562 C 179.636719 95.042969 179.308594 94.644531 178.941406 94.277344 C 178.574219 93.90625 178.175781 93.578125 177.746094 93.289062 C 177.316406 93 176.859375 92.753906 176.382812 92.554688 C 175.902344 92.351562 175.410156 92.203125 174.898438 92.097656 C 174.390625 91.996094 173.878906 91.941406 173.359375 91.941406 Z M 173.359375 91.941406"/><g clip-path="url(#b)"><path fill="#6B99D2" d="M 108.566406 53.90625 L 108.894531 53.90625 C 108.5 52.582031 108.300781 51.230469 108.300781 49.847656 C 108.300781 48.9375 108.390625 48.039062 108.566406 47.148438 C 108.742188 46.257812 109.003906 45.394531 109.347656 44.554688 C 109.695312 43.71875 110.117188 42.921875 110.621094 42.167969 C 111.121094 41.414062 111.695312 40.714844 112.332031 40.070312 C 112.972656 39.429688 113.667969 38.859375 114.417969 38.351562 C 115.171875 37.847656 115.964844 37.421875 116.800781 37.074219 C 117.632812 36.730469 118.496094 36.464844 119.382812 36.289062 C 120.269531 36.113281 121.164062 36.023438 122.066406 36.023438 C 123.671875 36.023438 125.230469 36.296875 126.742188 36.839844 C 128.253906 37.382812 129.628906 38.164062 130.867188 39.1875 C 131.101562 38.121094 131.433594 37.082031 131.855469 36.074219 C 132.277344 35.066406 132.789062 34.105469 133.390625 33.195312 C 133.988281 32.28125 134.664062 31.429688 135.421875 30.640625 C 136.175781 29.851562 136.996094 29.140625 137.878906 28.503906 C 138.765625 27.863281 139.699219 27.3125 140.6875 26.847656 C 141.671875 26.382812 142.691406 26.011719 143.746094 25.734375 C 144.796875 25.457031 145.867188 25.277344 146.953125 25.199219 C 148.039062 25.117188 149.125 25.136719 150.207031 25.253906 C 151.289062 25.375 152.351562 25.59375 153.394531 25.90625 C 154.4375 26.222656 155.445312 26.628906 156.414062 27.128906 C 157.382812 27.632812 158.296875 28.214844 159.15625 28.882812 C 160.019531 29.554688 160.8125 30.296875 161.539062 31.109375 C 162.265625 31.925781 162.910156 32.800781 163.476562 33.734375 C 164.042969 34.667969 164.519531 35.648438 164.910156 36.667969 C 165.296875 37.691406 165.585938 38.738281 165.785156 39.816406 C 165.980469 40.890625 166.078125 41.976562 166.074219 43.070312 C 166.070312 44.214844 165.960938 45.347656 165.746094 46.472656 C 166.488281 46.378906 167.230469 46.328125 167.976562 46.324219 C 168.796875 46.320312 169.609375 46.386719 170.414062 46.519531 C 171.222656 46.652344 172.011719 46.851562 172.785156 47.117188 C 173.5625 47.382812 174.308594 47.707031 175.027344 48.097656 C 175.75 48.484375 176.433594 48.929688 177.082031 49.433594 C 177.726562 49.933594 178.328125 50.484375 178.886719 51.089844 C 179.441406 51.691406 179.945312 52.332031 180.394531 53.019531 C 180.847656 53.703125 181.238281 54.421875 181.570312 55.171875 C 181.902344 55.925781 182.171875 56.695312 182.375 57.492188 C 182.578125 58.285156 182.71875 59.09375 182.789062 59.910156 C 182.863281 60.730469 182.867188 61.546875 182.804688 62.367188 C 182.742188 63.183594 182.609375 63.992188 182.414062 64.789062 C 182.21875 65.589844 181.960938 66.363281 181.636719 67.117188 C 181.3125 67.871094 180.929688 68.59375 180.484375 69.285156 C 180.042969 69.976562 179.546875 70.625 178.996094 71.234375 C 178.445312 71.839844 177.851562 72.398438 177.210938 72.910156 C 176.566406 73.417969 175.890625 73.871094 175.171875 74.265625 C 173.324219 75.527344 171.28125 76.152344 169.046875 76.148438 L 108.566406 76.148438 C 107.839844 76.144531 107.121094 76.074219 106.40625 75.929688 C 105.691406 75.785156 105 75.574219 104.328125 75.292969 C 103.65625 75.011719 103.019531 74.667969 102.414062 74.261719 C 101.808594 73.855469 101.25 73.394531 100.734375 72.878906 C 100.21875 72.359375 99.761719 71.800781 99.355469 71.191406 C 98.949219 70.585938 98.609375 69.945312 98.328125 69.269531 C 98.050781 68.59375 97.839844 67.898438 97.695312 67.183594 C 97.550781 66.464844 97.480469 65.742188 97.476562 65.011719 C 97.480469 64.28125 97.554688 63.5625 97.699219 62.847656 C 97.84375 62.132812 98.058594 61.4375 98.339844 60.765625 C 98.617188 60.09375 98.960938 59.453125 99.367188 58.847656 C 99.769531 58.242188 100.230469 57.679688 100.746094 57.167969 C 101.257812 56.652344 101.820312 56.191406 102.421875 55.785156 C 103.027344 55.382812 103.664062 55.039062 104.335938 54.757812 C 105.007812 54.480469 105.699219 54.269531 106.410156 54.125 C 107.121094 53.980469 107.839844 53.910156 108.566406 53.90625 Z M 108.566406 53.90625"/></g><g clip-path="url(#c)"><path fill="#6B99D2" d="M 129.054688 108.183594 L 128.757812 108.183594 C 129.121094 107.078125 129.300781 105.941406 129.292969 104.777344 C 129.292969 98.417969 124.089844 93.253906 117.667969 93.253906 C 116.316406 93.246094 115.003906 93.46875 113.730469 93.925781 C 112.457031 94.382812 111.300781 95.046875 110.261719 95.910156 C 110.074219 95.085938 109.816406 94.277344 109.492188 93.496094 C 109.167969 92.710938 108.777344 91.957031 108.328125 91.242188 C 107.875 90.523438 107.367188 89.847656 106.804688 89.214844 C 106.238281 88.582031 105.625 88.003906 104.960938 87.476562 C 104.300781 86.949219 103.597656 86.480469 102.855469 86.070312 C 102.113281 85.660156 101.34375 85.316406 100.542969 85.039062 C 99.746094 84.761719 98.929688 84.554688 98.09375 84.414062 C 97.261719 84.273438 96.421875 84.207031 95.574219 84.207031 C 87.277344 84.207031 80.558594 90.894531 80.558594 99.136719 C 80.554688 100.089844 80.644531 101.035156 80.828125 101.972656 C 80.203125 101.886719 79.582031 101.847656 78.953125 101.851562 C 72.054688 101.851562 66.433594 107.40625 66.433594 114.273438 C 66.4375 115.386719 66.589844 116.476562 66.882812 117.550781 C 67.179688 118.621094 67.613281 119.636719 68.179688 120.59375 C 68.746094 121.546875 69.429688 122.414062 70.230469 123.183594 C 71.027344 123.957031 71.914062 124.605469 72.886719 125.140625 C 74.449219 126.203125 76.175781 126.730469 78.0625 126.722656 L 129.054688 126.722656 C 129.664062 126.722656 130.269531 126.667969 130.867188 126.546875 C 131.464844 126.429688 132.046875 126.257812 132.613281 126.023438 C 133.175781 125.792969 133.710938 125.507812 134.222656 125.167969 C 134.730469 124.832031 135.199219 124.449219 135.632812 124.015625 C 136.066406 123.585938 136.453125 123.117188 136.796875 122.609375 C 137.136719 122.101562 137.425781 121.566406 137.664062 121 C 137.898438 120.4375 138.078125 119.855469 138.203125 119.253906 C 138.324219 118.65625 138.386719 118.050781 138.390625 117.4375 C 138.390625 112.363281 134.199219 108.183594 129.054688 108.183594 Z M 129.054688 108.183594"/></g><path fill="#6B99D2" d="M 49.367188 62.175781 L 49.515625 62.175781 C 49.324219 61.535156 49.226562 60.875 49.21875 60.207031 C 49.21875 59.765625 49.261719 59.328125 49.347656 58.898438 C 49.433594 58.464844 49.558594 58.046875 49.730469 57.640625 C 49.898438 57.234375 50.101562 56.847656 50.347656 56.480469 C 50.589844 56.117188 50.871094 55.777344 51.179688 55.464844 C 51.492188 55.15625 51.828125 54.878906 52.195312 54.636719 C 52.558594 54.390625 52.945312 54.1875 53.351562 54.019531 C 53.757812 53.851562 54.175781 53.726562 54.605469 53.640625 C 55.035156 53.558594 55.46875 53.515625 55.910156 53.519531 C 57.515625 53.511719 58.933594 54.027344 60.160156 55.070312 C 60.269531 54.546875 60.421875 54.039062 60.625 53.546875 C 60.824219 53.050781 61.070312 52.582031 61.355469 52.132812 C 61.644531 51.683594 61.96875 51.265625 62.335938 50.878906 C 62.699219 50.488281 63.097656 50.136719 63.527344 49.824219 C 63.957031 49.507812 64.410156 49.238281 64.890625 49.007812 C 65.371094 48.777344 65.867188 48.59375 66.378906 48.457031 C 66.894531 48.316406 67.414062 48.230469 67.945312 48.1875 C 68.472656 48.148438 69.003906 48.15625 69.53125 48.210938 C 70.058594 48.269531 70.578125 48.375 71.089844 48.527344 C 71.597656 48.683594 72.085938 48.882812 72.558594 49.125 C 73.03125 49.371094 73.476562 49.65625 73.898438 49.984375 C 74.316406 50.3125 74.703125 50.675781 75.054688 51.074219 C 75.410156 51.472656 75.722656 51.902344 75.996094 52.359375 C 76.269531 52.816406 76.5 53.292969 76.683594 53.792969 C 76.871094 54.292969 77.007812 54.808594 77.101562 55.332031 C 77.191406 55.859375 77.234375 56.386719 77.226562 56.921875 C 77.230469 57.484375 77.167969 58.042969 77.050781 58.59375 C 77.402344 58.535156 77.761719 58.503906 78.121094 58.503906 C 78.921875 58.5 79.699219 58.625 80.457031 58.882812 C 81.214844 59.140625 81.910156 59.511719 82.546875 60 C 83.179688 60.492188 83.71875 61.070312 84.160156 61.742188 C 84.601562 62.410156 84.921875 63.132812 85.125 63.910156 C 85.324219 64.6875 85.394531 65.476562 85.332031 66.277344 C 85.273438 67.078125 85.085938 67.847656 84.769531 68.585938 C 84.453125 69.324219 84.023438 69.992188 83.488281 70.585938 C 82.949219 71.179688 82.328125 71.671875 81.628906 72.058594 C 80.726562 72.65625 79.734375 72.953125 78.65625 72.953125 L 49.367188 72.953125 C 49.015625 72.953125 48.667969 72.917969 48.320312 72.851562 C 47.976562 72.78125 47.640625 72.679688 47.316406 72.546875 C 46.988281 72.410156 46.679688 72.246094 46.386719 72.050781 C 46.09375 71.851562 45.820312 71.632812 45.574219 71.382812 C 45.324219 71.132812 45.097656 70.859375 44.902344 70.566406 C 44.707031 70.273438 44.539062 69.964844 44.402344 69.636719 C 44.269531 69.3125 44.164062 68.976562 44.09375 68.628906 C 44.023438 68.285156 43.988281 67.933594 43.984375 67.578125 C 43.988281 67.226562 44.023438 66.875 44.09375 66.527344 C 44.164062 66.179688 44.265625 65.84375 44.402344 65.515625 C 44.539062 65.191406 44.707031 64.878906 44.902344 64.585938 C 45.097656 64.289062 45.320312 64.019531 45.570312 63.769531 C 45.820312 63.515625 46.089844 63.292969 46.382812 63.097656 C 46.675781 62.898438 46.988281 62.730469 47.3125 62.59375 C 47.636719 62.460938 47.972656 62.355469 48.320312 62.285156 C 48.664062 62.214844 49.015625 62.179688 49.367188 62.175781 Z M 49.367188 62.175781"/></svg>