<svg xmlns="http://www.w3.org/2000/svg" width="224.88" viewBox="0 0 224.88 127.5" height="127.5" version="1.0"><defs><clipPath id="a"><path d="M 108 95 L 120 95 L 120 127.003906 L 108 127.003906 Z M 108 95"/></clipPath><clipPath id="b"><path d="M 148 61 L 175.941406 61 L 175.941406 63 L 148 63 Z M 148 61"/></clipPath><clipPath id="c"><path d="M 143 56 L 175.941406 56 L 175.941406 68 L 143 68 Z M 143 56"/></clipPath><clipPath id="d"><path d="M 48.9375 57 L 81 57 L 81 68 L 48.9375 68 Z M 48.9375 57"/></clipPath></defs><path fill="#FFB544" d="M 143.710938 61.914062 C 143.710938 62.910156 143.660156 63.90625 143.5625 64.898438 C 143.460938 65.890625 143.316406 66.875 143.121094 67.855469 C 142.925781 68.832031 142.679688 69.796875 142.390625 70.753906 C 142.101562 71.707031 141.765625 72.644531 141.382812 73.566406 C 141 74.488281 140.574219 75.386719 140.101562 76.265625 C 139.628906 77.144531 139.117188 78 138.5625 78.828125 C 138.007812 79.65625 137.414062 80.457031 136.78125 81.226562 C 136.148438 82 135.476562 82.738281 134.773438 83.441406 C 134.066406 84.144531 133.328125 84.816406 132.554688 85.445312 C 131.785156 86.078125 130.984375 86.671875 130.15625 87.226562 C 129.324219 87.78125 128.46875 88.292969 127.589844 88.761719 C 126.710938 89.230469 125.808594 89.65625 124.886719 90.039062 C 123.964844 90.417969 123.027344 90.753906 122.074219 91.042969 C 121.117188 91.332031 120.152344 91.574219 119.171875 91.769531 C 118.195312 91.960938 117.210938 92.109375 116.214844 92.207031 C 115.222656 92.300781 114.230469 92.351562 113.230469 92.351562 C 112.234375 92.351562 111.238281 92.300781 110.246094 92.203125 C 109.253906 92.105469 108.269531 91.957031 107.289062 91.765625 C 106.3125 91.570312 105.34375 91.328125 104.390625 91.035156 C 103.4375 90.746094 102.5 90.410156 101.578125 90.03125 C 100.65625 89.648438 99.753906 89.222656 98.875 88.75 C 97.996094 88.28125 97.140625 87.769531 96.3125 87.214844 C 95.484375 86.660156 94.683594 86.066406 93.910156 85.433594 C 93.140625 84.800781 92.402344 84.132812 91.695312 83.425781 C 90.992188 82.722656 90.324219 81.984375 89.691406 81.210938 C 89.058594 80.441406 88.464844 79.640625 87.910156 78.8125 C 87.355469 77.980469 86.84375 77.128906 86.371094 76.25 C 85.902344 75.367188 85.476562 74.46875 85.09375 73.546875 C 84.710938 72.625 84.375 71.6875 84.085938 70.734375 C 83.796875 69.777344 83.554688 68.8125 83.359375 67.832031 C 83.164062 66.855469 83.019531 65.871094 82.921875 64.878906 C 82.820312 63.882812 82.773438 62.890625 82.773438 61.890625 C 82.773438 60.894531 82.820312 59.898438 82.917969 58.90625 C 83.015625 57.914062 83.160156 56.929688 83.355469 55.949219 C 83.550781 54.972656 83.792969 54.003906 84.082031 53.050781 C 84.371094 52.097656 84.703125 51.15625 85.085938 50.234375 C 85.46875 49.3125 85.894531 48.414062 86.363281 47.535156 C 86.832031 46.652344 87.34375 45.796875 87.898438 44.96875 C 88.449219 44.140625 89.042969 43.339844 89.675781 42.566406 C 90.308594 41.796875 90.976562 41.058594 91.683594 40.351562 C 92.386719 39.644531 93.125 38.976562 93.894531 38.34375 C 94.664062 37.710938 95.464844 37.117188 96.292969 36.558594 C 97.125 36.003906 97.976562 35.492188 98.855469 35.023438 C 99.734375 34.550781 100.636719 34.125 101.558594 33.742188 C 102.480469 33.359375 103.417969 33.023438 104.371094 32.734375 C 105.324219 32.441406 106.292969 32.199219 107.269531 32.003906 C 108.246094 31.808594 109.234375 31.660156 110.226562 31.5625 C 111.21875 31.464844 112.214844 31.414062 113.210938 31.414062 C 114.210938 31.40625 115.210938 31.449219 116.207031 31.539062 C 117.203125 31.632812 118.191406 31.773438 119.175781 31.960938 C 120.160156 32.152344 121.128906 32.390625 122.089844 32.675781 C 123.046875 32.960938 123.992188 33.292969 124.917969 33.675781 C 125.84375 34.054688 126.75 34.480469 127.632812 34.949219 C 128.515625 35.417969 129.375 35.929688 130.207031 36.484375 C 131.042969 37.039062 131.84375 37.632812 132.621094 38.265625 C 133.394531 38.902344 134.136719 39.574219 134.84375 40.28125 C 135.550781 40.988281 136.222656 41.730469 136.855469 42.503906 C 137.488281 43.277344 138.085938 44.082031 138.640625 44.914062 C 139.195312 45.75 139.707031 46.605469 140.175781 47.492188 C 140.644531 48.375 141.070312 49.28125 141.449219 50.207031 C 141.828125 51.132812 142.160156 52.074219 142.449219 53.035156 C 142.734375 53.992188 142.972656 54.964844 143.160156 55.949219 C 143.351562 56.929688 143.492188 57.917969 143.585938 58.917969 C 143.675781 59.914062 143.71875 60.914062 143.710938 61.914062 Z M 143.710938 61.914062"/><path transform="matrix(.31444 0 0 .31444 48.939 0)" fill="#FFAE46" d="M 202.799261 0.496901 L 206.004373 0.496901 C 206.252831 0.496901 206.464021 0.583861 206.637941 0.757782 C 206.811862 0.944126 206.898823 1.155315 206.898823 1.403774 L 206.898823 86.637391 C 206.898823 86.885849 206.811862 87.097039 206.637941 87.27096 C 206.464021 87.457303 206.252831 87.544264 206.004373 87.544264 L 202.799261 87.544264 C 202.550802 87.544264 202.339613 87.457303 202.165692 87.27096 C 201.991771 87.097039 201.904811 86.885849 201.904811 86.637391 L 201.904811 1.403774 C 201.904811 1.155315 201.991771 0.944126 202.165692 0.757782 C 202.339613 0.583861 202.550802 0.496901 202.799261 0.496901 Z M 202.799261 0.496901" stroke="#FFAE46" stroke-miterlimit="10"/><path transform="rotate(-25.9 32.673 -39.09) scale(.31444)" fill="#FFAE46" d="M 197.001444 114.007506 L 200.196077 113.998204 C 200.446066 113.995302 200.66382 114.087228 200.838163 114.268554 C 201.017932 114.438706 201.092666 114.654525 201.095568 114.904514 L 201.097346 161.486591 C 201.100248 161.736581 201.008322 161.954335 200.838171 162.134104 C 200.66227 162.297272 200.4522 162.388607 200.20221 162.391509 L 197.001829 162.38421 C 196.751839 162.387112 196.545261 162.300613 196.365491 162.130461 C 196.191148 161.949135 196.099813 161.739064 196.096911 161.489075 L 196.10056 114.895823 C 196.097658 114.645833 196.184157 114.439255 196.365484 114.264912 C 196.535635 114.085142 196.756881 113.999233 197.001444 114.007506 Z M 197.001444 114.007506" stroke="#FFAE46" stroke-miterlimit="10"/><path transform="rotate(-25.9 68.556 42.156) scale(.31444)" fill="#FFAE46" d="M 311.404224 372.598603 L 314.59343 372.600476 C 314.84342 372.597574 315.061174 372.6895 315.240943 372.859651 C 315.415286 373.040978 315.506622 373.251048 315.498348 373.495612 L 315.4947 420.088863 C 315.497602 420.338853 315.411102 420.545432 315.240951 420.725201 C 315.059624 420.899544 314.849554 420.99088 314.599564 420.993781 L 311.399183 420.986482 C 311.149193 420.989384 310.942615 420.902885 310.762845 420.732733 C 310.588502 420.551407 310.497167 420.341336 310.494265 420.091347 L 310.497914 373.498095 C 310.495012 373.248106 310.581511 373.041527 310.762837 372.867184 C 310.932989 372.687414 311.154235 372.601505 311.404224 372.598603 Z M 311.404224 372.598603" stroke="#FFAE46" stroke-miterlimit="10"/><path transform="rotate(19.1 175.579 130.303) scale(.31444)" fill="#FFAE46" d="M 302.694881 111.397113 L 305.904727 111.40307 C 306.152158 111.396269 306.353546 111.484292 306.532367 111.659009 C 306.711188 111.833727 306.800162 112.052703 306.795224 112.304199 L 306.797808 158.895042 C 306.804609 159.142473 306.704847 159.347925 306.53013 159.526746 C 306.355412 159.705568 306.148175 159.790477 305.896679 159.785538 L 302.702637 159.787256 C 302.455205 159.794057 302.238014 159.69836 302.059193 159.523642 C 301.892111 159.34486 301.795463 159.141688 301.800401 158.890191 L 301.797816 112.299349 C 301.802754 112.047853 301.886713 111.834726 302.065495 111.667644 C 302.240212 111.488823 302.44745 111.403914 302.694881 111.397113 Z M 302.694881 111.397113" stroke="#FFAE46" stroke-miterlimit="10"/><path transform="rotate(19.1 143.35 213.466) scale(.31444)" fill="#FFAE46" d="M 200.693604 375.195783 L 203.90345 375.201739 C 204.150882 375.194939 204.368073 375.290636 204.535155 375.469418 C 204.713976 375.644136 204.798885 375.851373 204.805686 376.098804 L 204.796532 422.693711 C 204.803333 422.941143 204.719374 423.154269 204.540592 423.321351 C 204.365875 423.500172 204.146898 423.589146 203.899467 423.595947 L 200.70136 423.585926 C 200.453929 423.592727 200.236737 423.497029 200.057916 423.322312 C 199.890834 423.14353 199.794186 422.940357 199.799124 422.688861 L 199.79654 376.098019 C 199.801478 375.846522 199.889501 375.645135 200.064218 375.466314 C 200.238936 375.287493 200.446173 375.202584 200.693604 375.195783 Z M 200.693604 375.195783" stroke="#FFAE46" stroke-miterlimit="10"/><path transform="rotate(64.1 154.644 81.184) scale(.31444)" fill="#FFAE46" d="M 383.500202 183.60608 L 386.694834 183.596777 C 386.944824 183.593876 387.162578 183.685801 387.336921 183.867128 C 387.51669 184.037279 387.602599 184.258525 387.594326 184.503088 L 387.596104 231.085165 C 387.599006 231.335154 387.50708 231.552908 387.336929 231.732677 C 387.161028 231.895845 386.950958 231.987181 386.700968 231.990083 L 383.49516 231.993959 C 383.250597 231.985685 383.044019 231.899186 382.864249 231.729035 C 382.689906 231.547708 382.598571 231.337638 382.595669 231.087648 L 382.599318 184.494396 C 382.607591 184.249833 382.682915 184.037828 382.864242 183.863485 C 383.045568 183.689142 383.255639 183.597807 383.500202 183.60608 Z M 383.500202 183.60608" stroke="#FFAE46" stroke-miterlimit="10"/><path transform="rotate(64.1 73.242 117.153) scale(.31444)" fill="#FFAE46" d="M 124.898199 297.994863 L 128.09858 298.002162 C 128.34857 297.999261 128.555148 298.08576 128.729491 298.267086 C 128.909261 298.437238 129.000596 298.647308 129.003498 298.897298 L 128.999849 345.49055 C 129.002751 345.740539 128.916252 345.947118 128.734925 346.121461 C 128.564774 346.30123 128.343528 346.387139 128.093539 346.390041 L 124.904332 346.388169 C 124.654343 346.39107 124.436589 346.299145 124.25682 346.128993 C 124.082477 345.947667 124.002316 345.743023 123.999414 345.493033 L 124.003063 298.899781 C 124.000161 298.649792 124.08666 298.443213 124.256812 298.263444 C 124.438139 298.089101 124.648209 297.997765 124.898199 297.994863 Z M 124.898199 297.994863" stroke="#FFAE46" stroke-miterlimit="10"/><path transform="rotate(109.1 145.978 101.35) scale(.31444)" fill="#FFAE46" d="M 386.09592 294.306923 L 389.301701 294.30114 C 389.549133 294.294339 389.766324 294.390037 389.933406 294.568819 C 390.112227 294.743536 390.197136 294.950774 390.203937 295.198205 L 390.194782 341.793113 C 390.201583 342.040544 390.117624 342.25367 389.938842 342.420752 C 389.764125 342.599574 389.545148 342.688548 389.297717 342.695348 L 386.09961 342.685327 C 385.852179 342.692128 385.639052 342.608169 385.460231 342.433452 C 385.293149 342.25467 385.204175 342.035693 385.197374 341.788262 L 385.194791 295.197419 C 385.199729 294.945923 385.287752 294.744536 385.462469 294.565715 C 385.637187 294.386893 385.856163 294.297919 386.09592 294.306923 Z M 386.09592 294.306923" stroke="#FFAE46" stroke-miterlimit="10"/><path transform="rotate(109.1 63.037 69.236) scale(.31444)" fill="#FFAE46" d="M 122.303577 192.295627 L 125.501684 192.305649 C 125.749116 192.298848 125.962242 192.382806 126.129324 192.561588 C 126.308145 192.736306 126.397119 192.955282 126.40392 193.202713 L 126.406504 239.793556 C 126.397501 240.033313 126.313542 240.24644 126.138825 240.425261 C 125.964108 240.604082 125.745131 240.693056 125.493635 240.688118 L 122.299593 240.689835 C 122.048097 240.684897 121.83497 240.600939 121.667888 240.422156 C 121.489067 240.247439 121.404158 240.040202 121.397357 239.79277 L 121.394773 193.201928 C 121.399712 192.950431 121.48367 192.737305 121.662452 192.570223 C 121.83717 192.391402 122.056146 192.302428 122.303577 192.295627 Z M 122.303577 192.295627" stroke="#FFAE46" stroke-miterlimit="10"/><path fill="#FFAE46" d="M 113.492188 99.457031 L 114.5 99.457031 C 114.578125 99.457031 114.644531 99.484375 114.699219 99.539062 C 114.753906 99.59375 114.78125 99.660156 114.78125 99.738281 L 114.78125 126.542969 C 114.78125 126.621094 114.753906 126.6875 114.699219 126.742188 C 114.644531 126.796875 114.578125 126.824219 114.5 126.824219 L 113.492188 126.824219 C 113.414062 126.824219 113.347656 126.796875 113.292969 126.742188 C 113.238281 126.6875 113.210938 126.621094 113.210938 126.542969 L 113.210938 99.738281 C 113.210938 99.660156 113.238281 99.59375 113.292969 99.539062 C 113.347656 99.484375 113.414062 99.457031 113.492188 99.457031 Z M 113.492188 99.457031"/><g clip-path="url(#a)"><path transform="matrix(.31444 0 0 .31444 48.939 0)" fill="none" d="M 205.296267 316.299814 L 208.501379 316.299814 C 208.749837 316.299814 208.961026 316.386775 209.134947 316.560695 C 209.308868 316.734616 209.395828 316.945806 209.395828 317.194264 L 209.395828 402.440304 C 209.395828 402.688763 209.308868 402.899952 209.134947 403.073873 C 208.961026 403.247794 208.749837 403.334754 208.501379 403.334754 L 205.296267 403.334754 C 205.047808 403.334754 204.836619 403.247794 204.662698 403.073873 C 204.488777 402.899952 204.401817 402.688763 204.401817 402.440304 L 204.401817 317.194264 C 204.401817 316.945806 204.488777 316.734616 204.662698 316.560695 C 204.836619 316.386775 205.047808 316.299814 205.296267 316.299814 Z M 205.296267 316.299814" stroke="#FFAE46" stroke-miterlimit="10"/></g><g clip-path="url(#b)"><path fill="#FFAE46" d="M 175.785156 61.441406 L 175.785156 62.449219 C 175.785156 62.527344 175.757812 62.59375 175.699219 62.648438 C 175.644531 62.703125 175.578125 62.730469 175.5 62.730469 L 148.699219 62.730469 C 148.621094 62.730469 148.554688 62.703125 148.496094 62.648438 C 148.441406 62.59375 148.414062 62.527344 148.414062 62.449219 L 148.414062 61.441406 C 148.414062 61.363281 148.441406 61.296875 148.496094 61.242188 C 148.554688 61.1875 148.621094 61.160156 148.699219 61.160156 L 175.5 61.160156 C 175.578125 61.160156 175.644531 61.1875 175.699219 61.242188 C 175.757812 61.296875 175.785156 61.363281 175.785156 61.441406 Z M 175.785156 61.441406"/></g><g clip-path="url(#c)"><path transform="rotate(90 156.188 89.087) scale(.31444)" fill="none" d="M 408.799997 220.995489 L 412.005109 220.995489 C 412.253568 220.995489 412.464757 221.082449 412.638678 221.268793 C 412.812599 221.442714 412.899559 221.653904 412.899559 221.902362 L 412.899559 307.135979 C 412.899559 307.384438 412.812599 307.595627 412.638678 307.781971 C 412.464757 307.955892 412.253568 308.042852 412.005109 308.042852 L 408.799997 308.042852 C 408.551539 308.042852 408.34035 307.955892 408.166429 307.781971 C 407.992508 307.595627 407.905548 307.384438 407.905548 307.135979 L 407.905548 221.902362 C 407.905548 221.653904 407.992508 221.442714 408.166429 221.268793 C 408.34035 221.082449 408.551539 220.995489 408.799997 220.995489 Z M 408.799997 220.995489" stroke="#FFAE46" stroke-miterlimit="10"/></g><path fill="#FFAE46" d="M 76.453125 62.226562 L 76.453125 63.234375 C 76.453125 63.3125 76.425781 63.378906 76.371094 63.433594 C 76.3125 63.488281 76.246094 63.515625 76.167969 63.515625 L 49.367188 63.515625 C 49.289062 63.515625 49.222656 63.488281 49.167969 63.433594 C 49.109375 63.378906 49.082031 63.3125 49.082031 63.234375 L 49.082031 62.226562 C 49.082031 62.148438 49.109375 62.082031 49.167969 62.027344 C 49.222656 61.972656 49.289062 61.945312 49.367188 61.945312 L 76.167969 61.945312 C 76.246094 61.945312 76.3125 61.972656 76.371094 62.027344 C 76.425781 62.082031 76.453125 62.148438 76.453125 62.226562 Z M 76.453125 62.226562"/><g clip-path="url(#d)"><path transform="rotate(90 56.873 89.857) scale(.31444)" fill="none" d="M 92.997018 223.497837 L 96.20213 223.497837 C 96.450588 223.497837 96.661778 223.584797 96.835698 223.758718 C 97.009619 223.945062 97.09658 224.156251 97.09658 224.40471 L 97.09658 309.638327 C 97.09658 309.886785 97.009619 310.097975 96.835698 310.271896 C 96.661778 310.458239 96.450588 310.5452 96.20213 310.5452 L 92.997018 310.5452 C 92.748559 310.5452 92.53737 310.458239 92.363449 310.271896 C 92.189528 310.097975 92.102568 309.886785 92.102568 309.638327 L 92.102568 224.40471 C 92.102568 224.156251 92.189528 223.945062 92.363449 223.758718 C 92.53737 223.584797 92.748559 223.497837 92.997018 223.497837 Z M 92.997018 223.497837" stroke="#FFAE46" stroke-miterlimit="10"/></g><path transform="rotate(135 136.476 115.399) scale(.31444)" fill="#FFAE46" d="M 365.903687 335.50399 L 369.101183 335.50399 C 369.347144 335.50399 369.557968 335.591834 369.733654 335.76752 C 369.909341 335.943207 369.997184 336.154031 369.997184 336.399992 L 369.997184 421.643104 C 369.997184 421.889065 369.909341 422.099889 369.733654 422.275575 C 369.557968 422.451262 369.347144 422.539105 369.101183 422.539105 L 365.903687 422.539105 C 365.657726 422.539105 365.446902 422.451262 365.271216 422.275575 C 365.095529 422.099889 365.007686 421.889065 364.998902 421.634319 L 365.007686 336.399992 C 364.998902 336.145246 365.086745 335.934422 365.262432 335.758736 C 365.438118 335.583049 365.648942 335.495206 365.903687 335.50399 Z M 365.903687 335.50399" stroke="#FFAE46" stroke-miterlimit="10"/><path transform="rotate(135 65.704 45.727) scale(.31444)" fill="#FFAE46" d="M 140.798558 114.004805 L 143.996054 114.004805 C 144.250799 113.996021 144.461623 114.083864 144.637309 114.259551 C 144.812996 114.435237 144.900839 114.646061 144.892055 114.900807 L 144.900839 200.135134 C 144.900839 200.381096 144.804212 200.600704 144.628525 200.77639 C 144.452839 200.952077 144.242015 201.03992 143.996054 201.03992 L 140.798558 201.03992 C 140.552597 201.03992 140.341773 200.952077 140.166087 200.77639 C 139.9904 200.600704 139.902557 200.38988 139.902557 200.143919 L 139.902557 114.900807 C 139.902557 114.654846 139.9904 114.444022 140.166087 114.268335 C 140.341773 114.092649 140.552597 114.004805 140.798558 114.004805 Z M 140.798558 114.004805" stroke="#FFAE46" stroke-miterlimit="10"/><path transform="rotate(-135 56.684 101.478) scale(.31444)" fill="#FFAE46" d="M 140.094774 334.797182 L 143.301054 334.805967 C 143.547015 334.805967 143.757839 334.89381 143.94231 335.060712 C 144.109212 335.245183 144.197055 335.456007 144.197055 335.701968 L 144.197055 420.94508 C 144.197055 421.191041 144.109212 421.401865 143.933525 421.577552 C 143.757839 421.753238 143.547015 421.841082 143.301054 421.841082 L 140.103559 421.841082 C 139.857597 421.841082 139.646774 421.753238 139.471087 421.577552 C 139.295401 421.401865 139.198773 421.182257 139.198773 420.936296 L 139.198773 335.693184 C 139.198773 335.447223 139.286616 335.236399 139.462303 335.060712 C 139.637989 334.885026 139.848813 334.797182 140.094774 334.797182 Z M 140.094774 334.797182" stroke="#FFAE46" stroke-miterlimit="10"/><path transform="rotate(-135 126.343 30.72) scale(.31444)" fill="#FFAE46" d="M 361.695138 109.702803 L 364.901417 109.694019 C 365.147378 109.694019 365.358202 109.781862 365.533889 109.957549 C 365.709575 110.133235 365.806203 110.352844 365.806203 110.598805 L 365.806203 195.841917 C 365.806203 196.087878 365.718359 196.298702 365.542673 196.474388 C 365.366986 196.650075 365.147378 196.746702 364.901417 196.746702 L 361.695138 196.737918 C 361.449176 196.737918 361.238353 196.650075 361.062666 196.474388 C 360.886979 196.298702 360.799136 196.087878 360.799136 195.841917 L 360.799136 110.598805 C 360.799136 110.352844 360.886979 110.14202 361.062666 109.966333 C 361.238353 109.790647 361.449176 109.702803 361.695138 109.702803 Z M 361.695138 109.702803" stroke="#FFAE46" stroke-miterlimit="10"/></svg>