<svg xmlns="http://www.w3.org/2000/svg" width="768" viewBox="0 0 768 768" height="768" version="1.0"><path fill="#6B99D2" d="M 384.132812 0 C 377.847656 0.00390625 371.570312 0.164062 365.296875 0.476562 C 359.019531 0.785156 352.757812 1.253906 346.503906 1.871094 C 340.253906 2.492188 334.019531 3.261719 327.804688 4.1875 C 321.589844 5.113281 315.402344 6.191406 309.242188 7.417969 C 303.078125 8.644531 296.953125 10.023438 290.859375 11.554688 C 284.765625 13.082031 278.710938 14.757812 272.699219 16.585938 C 266.6875 18.410156 260.726562 20.382812 254.808594 22.5 C 248.894531 24.617188 243.035156 26.878906 237.230469 29.285156 C 231.429688 31.691406 225.6875 34.238281 220.007812 36.921875 C 214.328125 39.609375 208.71875 42.433594 203.175781 45.394531 C 197.636719 48.359375 192.171875 51.453125 186.78125 54.683594 C 181.394531 57.914062 176.085938 61.273438 170.863281 64.761719 C 165.640625 68.253906 160.503906 71.871094 155.457031 75.613281 C 150.410156 79.351562 145.457031 83.214844 140.601562 87.199219 C 135.742188 91.1875 130.984375 95.285156 126.328125 99.503906 C 121.671875 103.722656 117.125 108.050781 112.679688 112.492188 C 108.234375 116.933594 103.902344 121.480469 99.679688 126.136719 C 95.460938 130.789062 91.355469 135.542969 87.367188 140.398438 C 83.378906 145.253906 79.511719 150.203125 75.769531 155.246094 C 72.023438 160.289062 68.402344 165.421875 64.910156 170.644531 C 61.417969 175.867188 58.050781 181.171875 54.820312 186.558594 C 51.585938 191.945312 48.484375 197.40625 45.519531 202.945312 C 42.554688 208.484375 39.726562 214.09375 37.035156 219.769531 C 34.34375 225.445312 31.796875 231.1875 29.386719 236.988281 C 26.976562 242.792969 24.710938 248.648438 22.589844 254.5625 C 20.46875 260.476562 18.492188 266.4375 16.660156 272.449219 C 14.832031 278.460938 13.152344 284.511719 11.617188 290.605469 C 10.085938 296.695312 8.703125 302.824219 7.46875 308.984375 C 6.238281 315.144531 5.15625 321.332031 4.226562 327.546875 C 3.296875 333.757812 2.519531 339.992188 1.898438 346.242188 C 1.273438 352.496094 0.804688 358.757812 0.488281 365.03125 C 0.171875 371.308594 0.0078125 377.585938 0 383.867188 C 0 595.785156 172.476562 768 384.132812 768 C 390.414062 767.996094 396.695312 767.835938 402.972656 767.523438 C 409.246094 767.210938 415.511719 766.746094 421.765625 766.125 C 428.019531 765.507812 434.253906 764.734375 440.46875 763.808594 C 446.683594 762.882812 452.871094 761.804688 459.035156 760.574219 C 465.195312 759.34375 471.324219 757.964844 477.421875 756.433594 C 483.515625 754.902344 489.566406 753.226562 495.582031 751.398438 C 501.59375 749.570312 507.554688 747.597656 513.472656 745.476562 C 519.386719 743.355469 525.246094 741.09375 531.050781 738.683594 C 536.855469 736.277344 542.597656 733.726562 548.277344 731.039062 C 553.957031 728.347656 559.566406 725.523438 565.105469 722.558594 C 570.648438 719.59375 576.109375 716.492188 581.5 713.261719 C 586.886719 710.027344 592.195312 706.664062 597.417969 703.171875 C 602.640625 699.675781 607.773438 696.058594 612.820312 692.3125 C 617.867188 688.566406 622.816406 684.699219 627.671875 680.710938 C 632.527344 676.722656 637.285156 672.621094 641.9375 668.398438 C 646.59375 664.175781 651.140625 659.84375 655.582031 655.398438 C 660.023438 650.953125 664.355469 646.402344 668.574219 641.746094 C 672.792969 637.085938 676.894531 632.328125 680.878906 627.46875 C 684.863281 622.613281 688.726562 617.65625 692.46875 612.609375 C 696.210938 607.5625 699.828125 602.425781 703.316406 597.199219 C 706.808594 591.972656 710.167969 586.664062 713.394531 581.273438 C 716.625 575.882812 719.71875 570.417969 722.679688 564.875 C 725.640625 559.332031 728.464844 553.71875 731.152344 548.039062 C 733.835938 542.359375 736.382812 536.613281 738.785156 530.808594 C 741.1875 525.003906 743.449219 519.140625 745.566406 513.222656 C 747.679688 507.308594 749.648438 501.34375 751.472656 495.328125 C 753.296875 489.316406 754.972656 483.261719 756.5 477.164062 C 758.023438 471.070312 759.398438 464.941406 760.625 458.777344 C 761.851562 452.613281 762.925781 446.421875 763.847656 440.207031 C 764.765625 433.992188 765.535156 427.757812 766.152344 421.503906 C 766.765625 415.25 767.230469 408.984375 767.539062 402.707031 C 767.847656 396.433594 768 390.152344 768 383.867188 C 768 172.214844 595.785156 0 384.132812 0 Z M 599.203125 631.28125 C 594.230469 635.601562 589.132812 639.773438 583.910156 643.789062 C 578.683594 647.804688 573.34375 651.660156 567.890625 655.355469 C 562.433594 659.050781 556.871094 662.578125 551.203125 665.9375 C 545.53125 669.292969 539.769531 672.480469 533.90625 675.492188 C 528.046875 678.503906 522.101562 681.335938 516.070312 683.988281 C 510.035156 686.640625 503.929688 689.109375 497.75 691.394531 C 491.570312 693.679688 485.328125 695.773438 479.019531 697.683594 C 472.710938 699.59375 466.355469 701.308594 459.945312 702.832031 C 453.53125 704.359375 447.082031 705.6875 440.59375 706.824219 C 434.101562 707.960938 427.582031 708.902344 421.035156 709.644531 C 414.488281 710.386719 407.925781 710.929688 401.34375 711.277344 C 394.765625 711.625 388.179688 711.773438 381.589844 711.726562 C 375 711.675781 368.421875 711.425781 361.847656 710.980469 C 355.273438 710.535156 348.71875 709.890625 342.183594 709.046875 C 335.648438 708.207031 329.144531 707.167969 322.671875 705.933594 C 316.199219 704.699219 309.769531 703.273438 303.382812 701.652344 C 296.996094 700.03125 290.664062 698.21875 284.386719 696.214844 C 278.109375 694.210938 271.898438 692.019531 265.75 689.640625 C 259.605469 687.265625 253.539062 684.703125 247.546875 681.960938 C 241.554688 679.214844 235.652344 676.292969 229.839844 673.195312 C 224.023438 670.09375 218.308594 666.824219 212.691406 663.378906 C 207.074219 659.933594 201.566406 656.324219 196.164062 652.546875 C 190.765625 648.773438 185.484375 644.835938 180.320312 640.742188 C 175.160156 636.648438 170.125 632.402344 165.21875 628.003906 C 160.3125 623.605469 155.542969 619.0625 150.910156 614.375 C 146.277344 609.691406 141.789062 604.871094 137.449219 599.914062 C 133.105469 594.957031 128.917969 589.875 124.882812 584.664062 C 120.847656 579.457031 116.972656 574.128906 113.257812 568.6875 C 109.542969 563.246094 105.996094 557.695312 102.617188 552.039062 C 99.234375 546.382812 96.03125 540.628906 92.996094 534.78125 C 89.964844 528.929688 87.109375 522.996094 84.433594 516.972656 C 81.757812 510.949219 79.269531 504.855469 76.960938 498.683594 C 74.652344 492.511719 72.53125 486.277344 70.601562 479.976562 C 68.667969 473.679688 66.925781 467.328125 65.378906 460.925781 C 63.828125 454.523438 62.472656 448.078125 61.3125 441.59375 C 60.152344 435.105469 59.1875 428.59375 58.417969 422.050781 C 57.652344 415.503906 57.082031 408.945312 56.710938 402.367188 C 56.339844 395.789062 56.164062 389.207031 56.1875 382.617188 C 56.214844 376.03125 56.4375 369.449219 56.859375 362.875 C 57.28125 356.296875 57.902344 349.742188 58.71875 343.203125 C 59.535156 336.667969 60.546875 330.160156 61.757812 323.683594 C 62.96875 317.207031 64.371094 310.773438 65.96875 304.382812 C 67.566406 297.988281 69.355469 291.652344 71.335938 285.367188 C 73.316406 279.082031 75.484375 272.863281 77.839844 266.710938 C 80.191406 260.558594 82.730469 254.480469 85.453125 248.480469 C 88.175781 242.476562 91.074219 236.566406 94.152344 230.738281 C 97.230469 224.914062 100.480469 219.183594 103.902344 213.554688 C 107.328125 207.925781 110.917969 202.402344 114.671875 196.988281 C 118.429688 191.578125 122.347656 186.28125 126.421875 181.101562 C 130.496094 175.925781 134.726562 170.875 139.105469 165.953125 C 143.488281 161.03125 148.011719 156.242188 152.679688 151.59375 C 157.347656 146.945312 162.152344 142.4375 167.09375 138.078125 C 172.035156 133.71875 177.101562 129.507812 182.296875 125.453125 C 187.492188 121.398438 192.804688 117.503906 198.234375 113.769531 C 203.660156 110.035156 209.199219 106.464844 214.84375 103.066406 C 220.488281 99.664062 226.230469 96.4375 232.070312 93.378906 C 237.90625 90.324219 243.832031 87.449219 249.847656 84.75 C 255.859375 82.054688 261.945312 79.539062 268.109375 77.207031 C 274.273438 74.875 280.503906 72.734375 286.796875 70.777344 C 293.089844 68.820312 299.4375 67.058594 305.835938 65.484375 C 312.234375 63.910156 318.675781 62.53125 325.160156 61.347656 C 331.644531 60.164062 338.15625 59.175781 344.699219 58.382812 C 351.242188 57.589844 357.800781 56.996094 364.378906 56.597656 C 370.957031 56.199219 377.542969 56.003906 384.132812 56.003906 C 564.761719 56.003906 711.996094 203.238281 711.996094 383.867188 C 711.996094 389.710938 711.839844 395.550781 711.527344 401.382812 C 711.214844 407.21875 710.746094 413.039062 710.121094 418.847656 C 709.496094 424.65625 708.714844 430.445312 707.78125 436.214844 C 706.847656 441.980469 705.761719 447.71875 704.519531 453.429688 C 703.28125 459.136719 701.886719 464.808594 700.34375 470.445312 C 698.800781 476.078125 697.109375 481.667969 695.265625 487.214844 C 693.421875 492.757812 691.433594 498.25 689.296875 503.6875 C 687.160156 509.125 684.878906 514.5 682.457031 519.816406 C 680.035156 525.132812 677.46875 530.382812 674.765625 535.5625 C 672.0625 540.738281 669.222656 545.84375 666.242188 550.871094 C 663.265625 555.898438 660.15625 560.839844 656.917969 565.703125 C 653.675781 570.5625 650.304688 575.335938 646.808594 580.015625 C 643.3125 584.695312 639.695312 589.28125 635.953125 593.769531 C 632.210938 598.253906 628.355469 602.640625 624.378906 606.921875 C 620.402344 611.203125 616.316406 615.375 612.117188 619.4375 C 607.917969 623.5 603.613281 627.445312 599.203125 631.28125 Z M 599.203125 631.28125"/><path fill="#FFFFF8" d="M 711.996094 383.867188 C 712 390.800781 711.785156 397.722656 711.347656 404.640625 C 710.914062 411.558594 710.257812 418.457031 709.386719 425.332031 C 708.511719 432.207031 707.421875 439.046875 706.117188 445.855469 C 704.808594 452.660156 703.289062 459.421875 701.554688 466.128906 C 699.816406 472.839844 697.871094 479.488281 695.714844 486.078125 C 693.558594 492.664062 691.195312 499.175781 688.625 505.613281 C 686.054688 512.050781 683.28125 518.398438 680.308594 524.660156 C 677.335938 530.921875 674.167969 537.082031 670.804688 543.140625 C 667.441406 549.203125 663.890625 555.148438 660.148438 560.984375 C 656.40625 566.820312 652.484375 572.53125 648.382812 578.117188 C 644.28125 583.703125 640.003906 589.152344 635.554688 594.46875 C 631.109375 599.785156 626.496094 604.953125 621.71875 609.976562 C 616.941406 614.996094 612.011719 619.863281 606.925781 624.574219 C 601.84375 629.285156 596.613281 633.828125 591.238281 638.207031 C 585.867188 642.585938 580.359375 646.789062 574.71875 650.816406 C 569.082031 654.847656 563.320312 658.691406 557.433594 662.355469 C 551.550781 666.019531 545.558594 669.492188 539.453125 672.777344 C 533.351562 676.058594 527.148438 679.148438 520.847656 682.039062 C 514.546875 684.929688 508.164062 687.617188 501.695312 690.101562 C 495.222656 692.585938 488.679688 694.863281 482.066406 696.933594 C 475.453125 699.003906 468.777344 700.863281 462.046875 702.511719 C 455.3125 704.15625 448.535156 705.589844 441.710938 706.808594 C 434.886719 708.023438 428.03125 709.023438 421.144531 709.804688 C 414.257812 710.589844 407.355469 711.152344 400.433594 711.496094 C 393.511719 711.839844 386.582031 711.964844 379.652344 711.871094 C 372.722656 711.777344 365.800781 711.464844 358.890625 710.929688 C 351.980469 710.394531 345.09375 709.644531 338.230469 708.675781 C 331.367188 707.703125 324.542969 706.515625 317.757812 705.113281 C 310.96875 703.710938 304.230469 702.09375 297.546875 700.261719 C 290.863281 698.433594 284.242188 696.390625 277.6875 694.140625 C 271.128906 691.890625 264.652344 689.4375 258.253906 686.773438 C 251.851562 684.113281 245.542969 681.253906 239.324219 678.191406 C 233.105469 675.128906 226.992188 671.875 220.980469 668.425781 C 214.96875 664.976562 209.070312 661.339844 203.289062 657.519531 C 197.507812 653.695312 191.855469 649.691406 186.328125 645.511719 C 180.796875 641.328125 175.410156 636.976562 170.15625 632.453125 C 164.90625 627.929688 159.804688 623.246094 154.847656 618.398438 C 149.894531 613.550781 145.097656 608.550781 140.460938 603.402344 C 135.824219 598.25 131.355469 592.957031 127.050781 587.523438 C 122.75 582.085938 118.625 576.523438 114.675781 570.824219 C 110.726562 565.128906 106.964844 559.3125 103.382812 553.378906 C 99.804688 547.445312 96.414062 541.402344 93.21875 535.25 C 90.023438 529.101562 87.023438 522.855469 84.222656 516.515625 C 81.421875 510.175781 78.824219 503.753906 76.433594 497.25 C 74.039062 490.746094 71.855469 484.171875 69.878906 477.527344 C 67.902344 470.882812 66.136719 464.183594 64.585938 457.429688 C 63.035156 450.675781 61.699219 443.875 60.578125 437.035156 C 59.457031 430.195312 58.554688 423.328125 57.871094 416.429688 C 57.183594 409.535156 56.71875 402.621094 56.472656 395.695312 C 56.226562 388.769531 56.199219 381.839844 56.394531 374.914062 C 56.585938 367.984375 56.996094 361.070312 57.628906 354.167969 C 58.261719 347.265625 59.109375 340.390625 60.175781 333.539062 C 61.246094 326.691406 62.527344 319.886719 64.027344 313.117188 C 65.527344 306.351562 67.238281 299.636719 69.164062 292.980469 C 71.089844 286.320312 73.222656 279.730469 75.566406 273.207031 C 77.910156 266.683594 80.457031 260.242188 83.207031 253.878906 C 85.957031 247.519531 88.910156 241.25 92.058594 235.078125 C 95.207031 228.902344 98.546875 222.832031 102.082031 216.871094 C 105.617188 210.910156 109.335938 205.0625 113.238281 199.335938 C 117.144531 193.609375 121.226562 188.015625 125.484375 182.546875 C 129.746094 177.078125 134.175781 171.75 138.769531 166.5625 C 143.367188 161.378906 148.125 156.339844 153.042969 151.457031 C 157.960938 146.570312 163.027344 141.847656 168.242188 137.28125 C 173.457031 132.71875 178.8125 128.324219 184.308594 124.101562 C 191.390625 118.605469 198.691406 113.414062 206.203125 108.523438 C 213.714844 103.632812 221.417969 99.0625 229.3125 94.8125 C 237.203125 90.558594 245.257812 86.640625 253.472656 83.058594 C 261.691406 79.472656 270.042969 76.238281 278.527344 73.34375 C 287.011719 70.453125 295.601562 67.917969 304.296875 65.738281 C 312.992188 63.558594 321.761719 61.742188 330.609375 60.289062 C 339.457031 58.835938 348.347656 57.753906 357.28125 57.035156 C 366.21875 56.320312 375.167969 55.976562 384.132812 56.003906 C 564.761719 56.003906 711.996094 203.238281 711.996094 383.867188 Z M 711.996094 383.867188"/><path fill="#26477A" d="M 494.558594 343.640625 L 481.675781 318.402344 L 382.289062 122.523438 L 285.535156 319.714844 L 273.175781 344.957031 C 268.882812 357.570312 266.78125 370.542969 266.867188 383.867188 C 266.882812 385.992188 266.953125 388.117188 267.082031 390.238281 C 267.210938 392.355469 267.398438 394.472656 267.644531 396.582031 C 267.890625 398.695312 268.191406 400.796875 268.550781 402.890625 C 268.90625 404.984375 269.324219 407.066406 269.796875 409.140625 C 270.269531 411.210938 270.796875 413.269531 271.378906 415.3125 C 271.964844 417.355469 272.601562 419.378906 273.296875 421.386719 C 273.992188 423.394531 274.738281 425.382812 275.539062 427.351562 C 276.34375 429.320312 277.199219 431.261719 278.105469 433.183594 C 279.011719 435.105469 279.972656 437 280.984375 438.871094 C 281.992188 440.738281 283.054688 442.578125 284.164062 444.390625 C 285.277344 446.199219 286.433594 447.980469 287.640625 449.730469 C 288.851562 451.476562 290.105469 453.191406 291.40625 454.871094 C 292.707031 456.550781 294.050781 458.195312 295.441406 459.800781 C 296.832031 461.410156 298.261719 462.976562 299.738281 464.503906 C 301.214844 466.035156 302.730469 467.523438 304.285156 468.96875 C 305.839844 470.414062 307.4375 471.820312 309.066406 473.179688 C 310.699219 474.539062 312.367188 475.855469 314.074219 477.125 C 315.777344 478.394531 317.511719 479.613281 319.285156 480.789062 C 321.054688 481.964844 322.855469 483.089844 324.6875 484.167969 C 326.519531 485.246094 328.378906 486.273438 330.265625 487.246094 C 332.152344 488.222656 334.0625 489.148438 336 490.019531 C 337.9375 490.890625 339.898438 491.710938 341.882812 492.476562 C 343.863281 493.242188 345.863281 493.953125 347.886719 494.609375 C 349.90625 495.265625 351.941406 495.867188 353.996094 496.414062 C 356.050781 496.960938 358.117188 497.449219 360.195312 497.882812 C 362.277344 498.316406 364.367188 498.691406 366.46875 499.011719 C 368.566406 499.332031 370.675781 499.597656 372.789062 499.800781 C 374.90625 500.007812 377.023438 500.15625 379.144531 500.246094 C 381.269531 500.335938 383.390625 500.367188 385.515625 500.34375 C 387.640625 500.316406 389.765625 500.234375 391.882812 500.09375 C 394.003906 499.953125 396.117188 499.753906 398.226562 499.5 C 400.335938 499.246094 402.4375 498.933594 404.53125 498.5625 C 406.621094 498.191406 408.703125 497.765625 410.773438 497.285156 C 412.839844 496.800781 414.894531 496.261719 416.9375 495.667969 C 418.976562 495.074219 421 494.425781 423.003906 493.71875 C 425.007812 493.015625 426.992188 492.257812 428.953125 491.445312 C 430.917969 490.632812 432.859375 489.769531 434.773438 488.851562 C 436.691406 487.933594 438.582031 486.964844 440.445312 485.941406 C 442.308594 484.921875 444.140625 483.851562 445.949219 482.730469 C 447.753906 481.613281 449.527344 480.445312 451.269531 479.226562 C 453.011719 478.011719 454.71875 476.746094 456.390625 475.4375 C 458.066406 474.128906 459.703125 472.777344 461.300781 471.378906 C 462.902344 469.980469 464.460938 468.539062 465.984375 467.054688 C 467.503906 465.570312 468.984375 464.046875 470.421875 462.484375 C 471.863281 460.921875 473.257812 459.320312 474.609375 457.679688 C 475.960938 456.042969 477.265625 454.367188 478.527344 452.65625 C 479.789062 450.945312 481 449.203125 482.167969 447.425781 C 483.332031 445.648438 484.449219 443.84375 485.515625 442.003906 C 486.582031 440.167969 487.601562 438.304688 488.566406 436.410156 C 489.53125 434.519531 490.445312 432.601562 491.308594 430.660156 C 492.171875 428.71875 492.980469 426.753906 493.734375 424.769531 C 494.488281 422.78125 495.191406 420.777344 495.835938 418.753906 C 496.484375 416.730469 497.074219 414.6875 497.609375 412.632812 C 498.144531 410.578125 498.625 408.507812 499.046875 406.425781 C 499.46875 404.34375 499.835938 402.25 500.144531 400.148438 C 500.453125 398.046875 500.707031 395.9375 500.898438 393.820312 C 501.09375 391.707031 501.230469 389.585938 501.3125 387.464844 C 501.390625 385.339844 501.410156 383.214844 501.375 381.09375 C 501.339844 378.96875 501.246094 376.847656 501.09375 374.726562 C 500.941406 372.605469 500.734375 370.492188 500.46875 368.386719 C 500.203125 366.277344 499.878906 364.179688 499.496094 362.089844 C 499.117188 359.996094 498.679688 357.917969 498.1875 355.851562 C 497.691406 353.785156 497.144531 351.734375 496.539062 349.699219 C 495.933594 347.660156 495.273438 345.640625 494.558594 343.640625 Z M 384.132812 449.863281 C 382.203125 449.863281 380.277344 449.769531 378.359375 449.578125 C 376.4375 449.390625 374.535156 449.105469 372.640625 448.730469 C 370.75 448.355469 368.882812 447.886719 367.035156 447.328125 C 365.1875 446.765625 363.375 446.117188 361.59375 445.378906 C 359.8125 444.640625 358.070312 443.816406 356.367188 442.90625 C 354.667969 442 353.015625 441.007812 351.410156 439.9375 C 349.808594 438.863281 348.261719 437.71875 346.769531 436.492188 C 345.277344 435.269531 343.851562 433.976562 342.488281 432.613281 C 341.121094 431.25 339.828125 429.820312 338.605469 428.328125 C 337.382812 426.839844 336.234375 425.292969 335.160156 423.6875 C 334.089844 422.082031 333.101562 420.429688 332.191406 418.730469 C 331.28125 417.027344 330.457031 415.289062 329.71875 413.503906 C 328.980469 411.722656 328.332031 409.910156 327.773438 408.0625 C 327.210938 406.21875 326.746094 404.347656 326.367188 402.457031 C 325.992188 400.566406 325.710938 398.660156 325.519531 396.738281 C 325.332031 394.820312 325.238281 392.894531 325.238281 390.96875 C 325.238281 389.039062 325.332031 387.113281 325.519531 385.195312 C 325.710938 383.273438 325.992188 381.371094 326.367188 379.476562 C 326.746094 377.585938 327.210938 375.71875 327.773438 373.871094 C 328.332031 372.023438 328.980469 370.210938 329.71875 368.429688 C 330.457031 366.648438 331.28125 364.90625 332.191406 363.203125 C 333.101562 361.503906 334.089844 359.851562 335.160156 358.246094 C 336.234375 356.644531 337.382812 355.097656 338.605469 353.605469 C 339.828125 352.113281 341.121094 350.6875 342.488281 349.324219 C 343.851562 347.957031 345.277344 346.664062 346.769531 345.441406 C 348.261719 344.21875 349.808594 343.070312 351.410156 342 C 353.015625 340.925781 354.667969 339.9375 356.367188 339.027344 C 358.070312 338.117188 359.8125 337.292969 361.59375 336.554688 C 363.375 335.816406 365.1875 335.167969 367.035156 334.609375 C 368.882812 334.046875 370.75 333.582031 372.640625 333.203125 C 374.535156 332.828125 376.4375 332.546875 378.359375 332.355469 C 380.277344 332.167969 382.203125 332.074219 384.132812 332.074219 C 386.058594 332.074219 387.984375 332.167969 389.902344 332.355469 C 391.824219 332.546875 393.730469 332.828125 395.621094 333.203125 C 397.511719 333.582031 399.382812 334.046875 401.226562 334.609375 C 403.074219 335.167969 404.886719 335.816406 406.667969 336.554688 C 408.453125 337.292969 410.191406 338.117188 411.894531 339.027344 C 413.59375 339.9375 415.246094 340.925781 416.851562 341.996094 C 418.457031 343.070312 420.003906 344.21875 421.492188 345.441406 C 422.984375 346.664062 424.414062 347.957031 425.777344 349.324219 C 427.140625 350.6875 428.433594 352.113281 429.65625 353.605469 C 430.882812 355.097656 432.027344 356.644531 433.101562 358.246094 C 434.171875 359.851562 435.164062 361.503906 436.070312 363.203125 C 436.980469 364.90625 437.804688 366.648438 438.542969 368.429688 C 439.28125 370.210938 439.929688 372.023438 440.488281 373.871094 C 441.050781 375.71875 441.519531 377.585938 441.894531 379.476562 C 442.269531 381.371094 442.554688 383.273438 442.742188 385.195312 C 442.933594 387.113281 443.027344 389.039062 443.027344 390.96875 C 443.027344 392.894531 442.933594 394.820312 442.742188 396.738281 C 442.554688 398.660156 442.269531 400.566406 441.894531 402.457031 C 441.519531 404.347656 441.050781 406.21875 440.488281 408.0625 C 439.929688 409.910156 439.28125 411.722656 438.542969 413.503906 C 437.804688 415.289062 436.980469 417.027344 436.070312 418.730469 C 435.164062 420.429688 434.171875 422.082031 433.101562 423.6875 C 432.027344 425.292969 430.882812 426.839844 429.65625 428.328125 C 428.433594 429.820312 427.140625 431.25 425.777344 432.613281 C 424.414062 433.976562 422.984375 435.269531 421.492188 436.492188 C 420.003906 437.71875 418.457031 438.863281 416.851562 439.9375 C 415.246094 441.007812 413.59375 442 411.894531 442.90625 C 410.191406 443.816406 408.453125 444.640625 406.667969 445.378906 C 404.886719 446.117188 403.074219 446.765625 401.226562 447.328125 C 399.382812 447.886719 397.511719 448.355469 395.621094 448.730469 C 393.730469 449.105469 391.824219 449.390625 389.902344 449.578125 C 387.984375 449.769531 386.058594 449.863281 384.132812 449.863281 Z M 384.132812 449.863281"/></svg>