<svg xmlns="http://www.w3.org/2000/svg" width="224.88" viewBox="0 0 224.88 127.5" height="127.5" version="1.0"><defs><clipPath id="a"><path d="M 48.9375 0 L 175.941406 0 L 175.941406 76 L 48.9375 76 Z M 48.9375 0"/></clipPath></defs><path fill="#6B99D2" d="M 79.523438 84.398438 L 81.027344 84.398438 C 81.152344 84.398438 81.261719 84.441406 81.347656 84.527344 C 81.4375 84.617188 81.480469 84.722656 81.480469 84.847656 L 81.480469 101.628906 C 81.480469 101.753906 81.4375 101.859375 81.347656 101.949219 C 81.261719 102.035156 81.152344 102.082031 81.027344 102.082031 L 79.523438 102.082031 C 79.398438 102.082031 79.289062 102.035156 79.203125 101.949219 C 79.113281 101.859375 79.070312 101.753906 79.070312 101.628906 L 79.070312 84.847656 C 79.070312 84.722656 79.113281 84.617188 79.203125 84.527344 C 79.289062 84.441406 79.398438 84.398438 79.523438 84.398438 Z M 79.523438 84.398438"/><path fill="#6B99D2" d="M 89.132812 92.503906 L 89.132812 94.007812 C 89.132812 94.132812 89.089844 94.238281 89 94.328125 C 88.914062 94.417969 88.804688 94.460938 88.683594 94.460938 L 71.902344 94.460938 C 71.777344 94.460938 71.671875 94.417969 71.582031 94.328125 C 71.492188 94.238281 71.449219 94.132812 71.449219 94.007812 L 71.449219 92.503906 C 71.449219 92.378906 71.492188 92.269531 71.582031 92.183594 C 71.671875 92.09375 71.777344 92.050781 71.902344 92.050781 L 88.683594 92.050781 C 88.804688 92.050781 88.914062 92.09375 89 92.183594 C 89.089844 92.269531 89.132812 92.378906 89.132812 92.503906 Z M 89.132812 92.503906"/><path fill="#6B99D2" d="M 86 86.46875 L 87.066406 87.535156 C 87.15625 87.625 87.199219 87.730469 87.199219 87.855469 C 87.199219 87.980469 87.15625 88.085938 87.066406 88.175781 L 75.203125 100.039062 C 75.113281 100.128906 75.007812 100.171875 74.882812 100.171875 C 74.757812 100.171875 74.652344 100.128906 74.5625 100.039062 L 73.496094 98.972656 C 73.410156 98.886719 73.363281 98.777344 73.363281 98.65625 C 73.363281 98.53125 73.410156 98.421875 73.496094 98.335938 L 85.363281 86.46875 C 85.449219 86.382812 85.558594 86.335938 85.683594 86.335938 C 85.808594 86.335938 85.914062 86.382812 86 86.46875 Z M 86 86.46875"/><path fill="#6B99D2" d="M 87.089844 98.980469 L 86.027344 100.046875 C 85.9375 100.136719 85.832031 100.179688 85.707031 100.179688 C 85.582031 100.179688 85.476562 100.136719 85.386719 100.046875 L 73.519531 88.183594 C 73.433594 88.09375 73.390625 87.988281 73.390625 87.863281 C 73.390625 87.738281 73.433594 87.628906 73.519531 87.542969 L 74.585938 86.476562 C 74.675781 86.390625 74.78125 86.34375 74.90625 86.34375 C 75.03125 86.34375 75.136719 86.390625 75.226562 86.476562 L 87.089844 98.34375 C 87.179688 98.429688 87.222656 98.539062 87.222656 98.660156 C 87.222656 98.785156 87.179688 98.894531 87.089844 98.980469 Z M 87.089844 98.980469"/><path fill="#6B99D2" d="M 150.269531 83.613281 L 151.777344 83.613281 C 151.902344 83.613281 152.007812 83.65625 152.09375 83.746094 C 152.183594 83.835938 152.226562 83.941406 152.226562 84.066406 L 152.226562 100.84375 C 152.226562 100.96875 152.183594 101.078125 152.09375 101.164062 C 152.007812 101.253906 151.902344 101.296875 151.777344 101.296875 L 150.269531 101.296875 C 150.144531 101.296875 150.039062 101.253906 149.949219 101.164062 C 149.863281 101.078125 149.816406 100.96875 149.816406 100.84375 L 149.816406 84.066406 C 149.816406 83.941406 149.863281 83.835938 149.949219 83.746094 C 150.039062 83.65625 150.144531 83.613281 150.269531 83.613281 Z M 150.269531 83.613281"/><path fill="#6B99D2" d="M 159.882812 91.6875 L 159.882812 93.195312 C 159.882812 93.320312 159.835938 93.425781 159.75 93.515625 C 159.660156 93.601562 159.554688 93.648438 159.429688 93.648438 L 142.648438 93.648438 C 142.523438 93.648438 142.417969 93.601562 142.328125 93.515625 C 142.242188 93.425781 142.199219 93.320312 142.199219 93.195312 L 142.199219 91.6875 C 142.199219 91.5625 142.242188 91.457031 142.328125 91.367188 C 142.417969 91.28125 142.523438 91.238281 142.648438 91.238281 L 159.429688 91.238281 C 159.554688 91.238281 159.660156 91.28125 159.75 91.367188 C 159.835938 91.457031 159.882812 91.5625 159.882812 91.6875 Z M 159.882812 91.6875"/><path fill="#6B99D2" d="M 156.761719 85.660156 L 157.824219 86.726562 C 157.914062 86.816406 157.957031 86.921875 157.957031 87.046875 C 157.957031 87.171875 157.914062 87.277344 157.824219 87.367188 L 145.960938 99.230469 C 145.871094 99.320312 145.765625 99.363281 145.640625 99.363281 C 145.515625 99.363281 145.410156 99.320312 145.320312 99.230469 L 144.257812 98.167969 C 144.167969 98.078125 144.125 97.972656 144.125 97.847656 C 144.125 97.722656 144.167969 97.617188 144.257812 97.527344 L 156.121094 85.660156 C 156.210938 85.574219 156.316406 85.53125 156.441406 85.53125 C 156.566406 85.53125 156.671875 85.574219 156.761719 85.660156 Z M 156.761719 85.660156"/><path fill="#6B99D2" d="M 157.832031 98.179688 L 156.765625 99.246094 C 156.679688 99.332031 156.570312 99.378906 156.449219 99.378906 C 156.324219 99.378906 156.214844 99.332031 156.128906 99.246094 L 144.261719 87.378906 C 144.175781 87.292969 144.128906 87.183594 144.128906 87.058594 C 144.128906 86.933594 144.175781 86.828125 144.261719 86.742188 L 145.328125 85.675781 C 145.417969 85.585938 145.523438 85.542969 145.648438 85.542969 C 145.773438 85.542969 145.878906 85.585938 145.96875 85.675781 L 157.832031 97.539062 C 157.921875 97.628906 157.964844 97.734375 157.964844 97.859375 C 157.964844 97.984375 157.921875 98.089844 157.832031 98.179688 Z M 157.832031 98.179688"/><path fill="#26477A" d="M 120.230469 81.203125 L 121.523438 81.203125 C 121.632812 81.203125 121.726562 81.242188 121.800781 81.316406 C 121.878906 81.394531 121.917969 81.488281 121.917969 81.59375 L 121.917969 96.085938 C 121.917969 96.191406 121.878906 96.285156 121.800781 96.363281 C 121.726562 96.4375 121.632812 96.476562 121.523438 96.476562 L 120.230469 96.476562 C 120.121094 96.476562 120.027344 96.4375 119.953125 96.363281 C 119.875 96.285156 119.835938 96.191406 119.835938 96.085938 L 119.835938 81.59375 C 119.835938 81.488281 119.875 81.394531 119.953125 81.316406 C 120.027344 81.242188 120.121094 81.203125 120.230469 81.203125 Z M 120.230469 81.203125"/><path fill="#26477A" d="M 128.546875 88.191406 L 128.546875 89.488281 C 128.546875 89.597656 128.507812 89.6875 128.429688 89.765625 C 128.355469 89.84375 128.261719 89.878906 128.152344 89.878906 L 113.664062 89.878906 C 113.554688 89.878906 113.460938 89.84375 113.386719 89.765625 C 113.308594 89.6875 113.273438 89.597656 113.273438 89.488281 L 113.273438 88.191406 C 113.273438 88.085938 113.308594 87.992188 113.386719 87.917969 C 113.460938 87.839844 113.554688 87.800781 113.664062 87.800781 L 128.152344 87.800781 C 128.261719 87.800781 128.355469 87.839844 128.429688 87.917969 C 128.507812 87.992188 128.546875 88.085938 128.546875 88.191406 Z M 128.546875 88.191406"/><path fill="#26477A" d="M 125.832031 82.964844 L 126.75 83.878906 C 126.824219 83.957031 126.863281 84.046875 126.863281 84.15625 C 126.863281 84.265625 126.824219 84.355469 126.75 84.433594 L 116.503906 94.679688 C 116.425781 94.757812 116.335938 94.792969 116.226562 94.792969 C 116.117188 94.792969 116.027344 94.757812 115.949219 94.679688 L 115.035156 93.761719 C 114.957031 93.6875 114.917969 93.59375 114.917969 93.488281 C 114.917969 93.378906 114.957031 93.285156 115.035156 93.210938 L 125.28125 82.964844 C 125.355469 82.886719 125.449219 82.847656 125.554688 82.847656 C 125.664062 82.847656 125.757812 82.886719 125.832031 82.964844 Z M 125.832031 82.964844"/><path fill="#26477A" d="M 126.753906 93.769531 L 125.839844 94.683594 C 125.761719 94.761719 125.667969 94.796875 125.5625 94.796875 C 125.453125 94.796875 125.359375 94.761719 125.285156 94.683594 L 115.039062 84.4375 C 114.960938 84.363281 114.921875 84.269531 114.921875 84.160156 C 114.921875 84.054688 114.960938 83.960938 115.039062 83.882812 L 115.953125 82.96875 C 116.03125 82.890625 116.125 82.851562 116.230469 82.851562 C 116.339844 82.851562 116.433594 82.890625 116.507812 82.96875 L 126.753906 93.214844 C 126.832031 93.289062 126.867188 93.382812 126.867188 93.492188 C 126.867188 93.597656 126.832031 93.691406 126.753906 93.769531 Z M 126.753906 93.769531"/><path fill="#26477A" d="M 85.667969 111.726562 L 86.964844 111.726562 C 87.074219 111.726562 87.164062 111.765625 87.242188 111.839844 C 87.316406 111.917969 87.355469 112.007812 87.355469 112.117188 L 87.355469 126.605469 C 87.355469 126.714844 87.316406 126.808594 87.242188 126.882812 C 87.164062 126.960938 87.074219 127 86.964844 127 L 85.667969 127 C 85.558594 127 85.46875 126.960938 85.390625 126.882812 C 85.316406 126.808594 85.277344 126.714844 85.277344 126.605469 L 85.277344 112.117188 C 85.277344 112.007812 85.316406 111.917969 85.390625 111.839844 C 85.46875 111.765625 85.558594 111.726562 85.667969 111.726562 Z M 85.667969 111.726562"/><path fill="#26477A" d="M 93.953125 118.746094 L 93.953125 120.042969 C 93.953125 120.148438 93.917969 120.242188 93.839844 120.320312 C 93.761719 120.394531 93.671875 120.433594 93.5625 120.433594 L 79.074219 120.433594 C 78.964844 120.433594 78.871094 120.394531 78.796875 120.320312 C 78.71875 120.242188 78.679688 120.148438 78.679688 120.042969 L 78.679688 118.746094 C 78.679688 118.636719 78.71875 118.546875 78.796875 118.46875 C 78.871094 118.394531 78.964844 118.355469 79.074219 118.355469 L 93.5625 118.355469 C 93.671875 118.355469 93.761719 118.394531 93.839844 118.46875 C 93.917969 118.546875 93.953125 118.636719 93.953125 118.746094 Z M 93.953125 118.746094"/><path fill="#26477A" d="M 91.273438 113.515625 L 92.1875 114.429688 C 92.265625 114.507812 92.300781 114.601562 92.300781 114.707031 C 92.300781 114.816406 92.265625 114.910156 92.1875 114.984375 L 81.941406 125.230469 C 81.863281 125.308594 81.773438 125.347656 81.664062 125.347656 C 81.554688 125.347656 81.464844 125.308594 81.386719 125.230469 L 80.472656 124.316406 C 80.394531 124.238281 80.355469 124.144531 80.355469 124.039062 C 80.355469 123.929688 80.394531 123.835938 80.472656 123.761719 L 90.71875 113.515625 C 90.792969 113.4375 90.886719 113.402344 90.996094 113.402344 C 91.101562 113.402344 91.195312 113.4375 91.273438 113.515625 Z M 91.273438 113.515625"/><path fill="#26477A" d="M 92.164062 124.320312 L 91.25 125.234375 C 91.171875 125.3125 91.078125 125.351562 90.972656 125.351562 C 90.863281 125.351562 90.769531 125.3125 90.695312 125.234375 L 80.449219 114.988281 C 80.371094 114.914062 80.335938 114.820312 80.335938 114.710938 C 80.335938 114.605469 80.371094 114.511719 80.449219 114.433594 L 81.363281 113.519531 C 81.441406 113.441406 81.535156 113.402344 81.640625 113.402344 C 81.75 113.402344 81.84375 113.441406 81.917969 113.519531 L 92.164062 123.765625 C 92.242188 123.839844 92.28125 123.933594 92.28125 124.042969 C 92.28125 124.148438 92.242188 124.242188 92.164062 124.320312 Z M 92.164062 124.320312"/><path fill="#26477A" d="M 144.0625 113.351562 L 145.148438 113.351562 C 145.238281 113.351562 145.316406 113.386719 145.382812 113.449219 C 145.445312 113.515625 145.480469 113.59375 145.480469 113.683594 L 145.480469 125.882812 C 145.480469 125.976562 145.445312 126.054688 145.382812 126.117188 C 145.316406 126.183594 145.238281 126.214844 145.148438 126.214844 L 144.0625 126.214844 C 143.972656 126.214844 143.894531 126.183594 143.828125 126.117188 C 143.761719 126.054688 143.730469 125.976562 143.730469 125.882812 L 143.730469 113.683594 C 143.730469 113.59375 143.761719 113.515625 143.828125 113.449219 C 143.894531 113.386719 143.972656 113.351562 144.0625 113.351562 Z M 144.0625 113.351562"/><path fill="#26477A" d="M 151.023438 119.226562 L 151.023438 120.3125 C 151.023438 120.40625 150.992188 120.484375 150.925781 120.546875 C 150.859375 120.613281 150.78125 120.644531 150.691406 120.644531 L 138.492188 120.644531 C 138.398438 120.644531 138.320312 120.613281 138.257812 120.546875 C 138.191406 120.484375 138.160156 120.40625 138.160156 120.3125 L 138.160156 119.226562 C 138.160156 119.136719 138.191406 119.058594 138.257812 118.992188 C 138.320312 118.929688 138.398438 118.898438 138.492188 118.898438 L 150.691406 118.898438 C 150.78125 118.898438 150.859375 118.929688 150.925781 118.992188 C 150.992188 119.058594 151.023438 119.136719 151.023438 119.226562 Z M 151.023438 119.226562"/><path fill="#26477A" d="M 148.746094 114.835938 L 149.511719 115.601562 C 149.578125 115.667969 149.609375 115.746094 149.609375 115.835938 C 149.609375 115.929688 149.578125 116.007812 149.511719 116.070312 L 140.886719 124.699219 C 140.820312 124.761719 140.742188 124.796875 140.652344 124.796875 C 140.558594 124.796875 140.480469 124.761719 140.417969 124.699219 L 139.648438 123.933594 C 139.585938 123.867188 139.554688 123.789062 139.554688 123.699219 C 139.554688 123.605469 139.585938 123.527344 139.648438 123.464844 L 148.277344 114.835938 C 148.339844 114.773438 148.417969 114.738281 148.511719 114.738281 C 148.601562 114.738281 148.679688 114.773438 148.746094 114.835938 Z M 148.746094 114.835938"/><path fill="#26477A" d="M 149.539062 123.910156 L 148.773438 124.679688 C 148.707031 124.742188 148.628906 124.777344 148.539062 124.777344 C 148.445312 124.777344 148.367188 124.742188 148.304688 124.679688 L 139.675781 116.050781 C 139.613281 115.988281 139.578125 115.910156 139.578125 115.816406 C 139.578125 115.726562 139.613281 115.648438 139.675781 115.582031 L 140.445312 114.816406 C 140.507812 114.75 140.585938 114.71875 140.679688 114.71875 C 140.769531 114.71875 140.847656 114.75 140.914062 114.816406 L 149.539062 123.441406 C 149.605469 123.507812 149.636719 123.585938 149.636719 123.675781 C 149.636719 123.769531 149.605469 123.847656 149.539062 123.910156 Z M 149.539062 123.910156"/><path fill="#6B99D2" d="M 107.152344 103.710938 L 108.085938 103.710938 C 108.167969 103.710938 108.242188 103.738281 108.300781 103.800781 C 108.359375 103.859375 108.386719 103.929688 108.386719 104.011719 L 108.386719 114.664062 C 108.386719 114.746094 108.359375 114.816406 108.300781 114.875 C 108.242188 114.933594 108.167969 114.964844 108.085938 114.964844 L 107.152344 114.964844 C 107.070312 114.964844 106.996094 114.933594 106.9375 114.875 C 106.878906 114.816406 106.851562 114.746094 106.851562 114.664062 L 106.851562 104.011719 C 106.851562 103.929688 106.878906 103.859375 106.9375 103.800781 C 106.996094 103.738281 107.070312 103.710938 107.152344 103.710938 Z M 107.152344 103.710938"/><path fill="#6B99D2" d="M 113.269531 108.863281 L 113.269531 109.796875 C 113.269531 109.878906 113.238281 109.953125 113.179688 110.011719 C 113.121094 110.070312 113.050781 110.097656 112.96875 110.097656 L 102.316406 110.097656 C 102.234375 110.097656 102.160156 110.070312 102.101562 110.011719 C 102.042969 109.953125 102.015625 109.878906 102.015625 109.796875 L 102.015625 108.863281 C 102.015625 108.78125 102.042969 108.707031 102.101562 108.648438 C 102.160156 108.589844 102.234375 108.5625 102.316406 108.5625 L 112.96875 108.5625 C 113.050781 108.5625 113.121094 108.589844 113.179688 108.648438 C 113.238281 108.707031 113.269531 108.78125 113.269531 108.863281 Z M 113.269531 108.863281"/><path fill="#6B99D2" d="M 111.277344 105.027344 L 111.9375 105.691406 C 111.996094 105.75 112.027344 105.820312 112.027344 105.902344 C 112.027344 105.984375 111.996094 106.058594 111.9375 106.117188 L 104.40625 113.648438 C 104.347656 113.707031 104.277344 113.734375 104.195312 113.734375 C 104.109375 113.734375 104.039062 113.707031 103.980469 113.648438 L 103.320312 112.988281 C 103.261719 112.929688 103.230469 112.855469 103.230469 112.773438 C 103.230469 112.691406 103.261719 112.621094 103.320312 112.5625 L 110.851562 105.027344 C 110.910156 104.96875 110.980469 104.941406 111.066406 104.941406 C 111.148438 104.941406 111.21875 104.96875 111.277344 105.027344 Z M 111.277344 105.027344"/><path fill="#6B99D2" d="M 111.917969 112.988281 L 111.257812 113.648438 C 111.199219 113.707031 111.128906 113.738281 111.046875 113.738281 C 110.960938 113.738281 110.890625 113.707031 110.832031 113.648438 L 103.300781 106.117188 C 103.242188 106.058594 103.214844 105.988281 103.214844 105.90625 C 103.214844 105.820312 103.242188 105.75 103.300781 105.691406 L 103.960938 105.03125 C 104.019531 104.972656 104.089844 104.941406 104.175781 104.941406 C 104.257812 104.941406 104.328125 104.972656 104.386719 105.03125 L 111.917969 112.5625 C 111.976562 112.621094 112.007812 112.691406 112.007812 112.777344 C 112.007812 112.859375 111.976562 112.929688 111.917969 112.988281 Z M 111.917969 112.988281"/><g clip-path="url(#a)"><path fill="#26477A" d="M 159.460938 42.605469 L 158.945312 42.605469 C 159.558594 40.644531 159.859375 38.632812 159.851562 36.578125 C 159.851562 35.609375 159.785156 34.648438 159.648438 33.691406 C 159.511719 32.730469 159.308594 31.789062 159.039062 30.859375 C 158.769531 29.929688 158.4375 29.023438 158.039062 28.140625 C 157.640625 27.257812 157.183594 26.40625 156.664062 25.589844 C 156.144531 24.773438 155.574219 23.996094 154.945312 23.261719 C 154.316406 22.523438 153.640625 21.835938 152.914062 21.195312 C 152.1875 20.554688 151.417969 19.96875 150.609375 19.4375 C 149.800781 18.90625 148.957031 18.433594 148.082031 18.023438 C 147.207031 17.609375 146.304688 17.261719 145.382812 16.980469 C 144.457031 16.695312 143.515625 16.476562 142.558594 16.324219 C 141.601562 16.175781 140.640625 16.089844 139.671875 16.078125 C 138.707031 16.0625 137.742188 16.117188 136.78125 16.238281 C 135.820312 16.359375 134.875 16.546875 133.941406 16.804688 C 133.007812 17.0625 132.097656 17.382812 131.210938 17.765625 C 130.320312 18.152344 129.464844 18.597656 128.640625 19.105469 C 127.816406 19.609375 127.03125 20.171875 126.285156 20.789062 C 126.113281 20 125.90625 19.214844 125.664062 18.441406 C 125.417969 17.671875 125.140625 16.910156 124.828125 16.164062 C 124.515625 15.414062 124.167969 14.683594 123.785156 13.96875 C 123.40625 13.253906 122.996094 12.554688 122.550781 11.878906 C 122.105469 11.199219 121.632812 10.542969 121.128906 9.910156 C 120.625 9.273438 120.089844 8.664062 119.53125 8.078125 C 118.96875 7.496094 118.386719 6.933594 117.773438 6.402344 C 117.160156 5.871094 116.527344 5.367188 115.871094 4.894531 C 115.210938 4.421875 114.535156 3.980469 113.835938 3.566406 C 113.136719 3.15625 112.421875 2.777344 111.691406 2.433594 C 110.957031 2.085938 110.210938 1.773438 109.449219 1.496094 C 108.6875 1.21875 107.914062 0.976562 107.128906 0.769531 C 106.347656 0.5625 105.554688 0.394531 104.757812 0.261719 C 103.957031 0.125 103.152344 0.0273438 102.34375 -0.03125 C 101.539062 -0.0898438 100.726562 -0.113281 99.917969 -0.101562 C 99.109375 -0.0859375 98.300781 -0.0351562 97.492188 0.0507812 C 96.6875 0.140625 95.886719 0.265625 95.09375 0.425781 C 94.300781 0.585938 93.515625 0.785156 92.738281 1.015625 C 91.964844 1.25 91.199219 1.519531 90.449219 1.824219 C 89.695312 2.125 88.960938 2.460938 88.238281 2.832031 C 87.519531 3.203125 86.816406 3.609375 86.132812 4.042969 C 85.449219 4.476562 84.789062 4.941406 84.148438 5.4375 C 83.503906 5.933594 82.890625 6.460938 82.296875 7.011719 C 81.703125 7.5625 81.136719 8.144531 80.597656 8.746094 C 80.058594 9.351562 79.546875 9.980469 79.0625 10.628906 C 78.582031 11.28125 78.128906 11.953125 77.710938 12.644531 C 77.289062 13.339844 76.902344 14.050781 76.546875 14.777344 C 76.191406 15.507812 75.867188 16.25 75.582031 17.007812 C 75.292969 17.765625 75.042969 18.535156 74.824219 19.316406 C 74.605469 20.09375 74.425781 20.882812 74.28125 21.683594 C 74.136719 22.480469 74.03125 23.28125 73.957031 24.089844 C 73.886719 24.894531 73.855469 25.703125 73.855469 26.515625 C 73.847656 28.21875 74.007812 29.90625 74.339844 31.578125 C 73.238281 31.421875 72.136719 31.339844 71.023438 31.335938 C 69.808594 31.339844 68.605469 31.441406 67.40625 31.640625 C 66.207031 31.84375 65.035156 32.140625 63.886719 32.535156 C 62.738281 32.929688 61.628906 33.417969 60.558594 33.996094 C 59.492188 34.574219 58.476562 35.234375 57.515625 35.976562 C 56.558594 36.722656 55.664062 37.539062 54.839844 38.433594 C 54.015625 39.324219 53.269531 40.277344 52.601562 41.292969 C 51.933594 42.308594 51.351562 43.371094 50.859375 44.480469 C 50.367188 45.589844 49.96875 46.734375 49.664062 47.910156 C 49.359375 49.085938 49.152344 50.277344 49.042969 51.488281 C 48.9375 52.699219 48.929688 53.910156 49.019531 55.121094 C 49.113281 56.332031 49.300781 57.527344 49.589844 58.707031 C 49.878906 59.886719 50.261719 61.035156 50.738281 62.152344 C 51.21875 63.269531 51.785156 64.339844 52.4375 65.363281 C 53.09375 66.386719 53.824219 67.347656 54.636719 68.253906 C 55.453125 69.15625 56.332031 69.984375 57.28125 70.742188 C 58.230469 71.5 59.238281 72.175781 60.296875 72.765625 C 61.648438 73.675781 63.101562 74.367188 64.65625 74.84375 C 66.210938 75.324219 67.800781 75.5625 69.429688 75.570312 L 159.460938 75.570312 C 160 75.566406 160.535156 75.539062 161.074219 75.488281 C 161.609375 75.433594 162.144531 75.351562 162.671875 75.246094 C 163.203125 75.140625 163.722656 75.007812 164.242188 74.851562 C 164.757812 74.695312 165.261719 74.511719 165.761719 74.304688 C 166.261719 74.097656 166.746094 73.867188 167.222656 73.613281 C 167.699219 73.359375 168.160156 73.082031 168.609375 72.78125 C 169.058594 72.480469 169.488281 72.160156 169.90625 71.816406 C 170.324219 71.476562 170.722656 71.113281 171.105469 70.730469 C 171.484375 70.351562 171.847656 69.953125 172.191406 69.535156 C 172.53125 69.117188 172.855469 68.683594 173.152344 68.238281 C 173.453125 67.789062 173.730469 67.324219 173.984375 66.851562 C 174.242188 66.375 174.472656 65.886719 174.679688 65.390625 C 174.886719 64.890625 175.066406 64.382812 175.222656 63.867188 C 175.382812 63.351562 175.511719 62.828125 175.621094 62.300781 C 175.726562 61.769531 175.804688 61.238281 175.859375 60.703125 C 175.914062 60.164062 175.941406 59.625 175.941406 59.085938 C 175.941406 58.546875 175.914062 58.007812 175.859375 57.472656 C 175.804688 56.933594 175.726562 56.402344 175.621094 55.875 C 175.511719 55.34375 175.382812 54.820312 175.222656 54.304688 C 175.066406 53.789062 174.886719 53.28125 174.679688 52.785156 C 174.472656 52.285156 174.242188 51.800781 173.984375 51.324219 C 173.730469 50.847656 173.453125 50.386719 173.152344 49.9375 C 172.855469 49.488281 172.53125 49.054688 172.191406 48.640625 C 171.847656 48.222656 171.484375 47.824219 171.105469 47.441406 C 170.722656 47.058594 170.324219 46.699219 169.90625 46.355469 C 169.488281 46.011719 169.058594 45.691406 168.609375 45.390625 C 168.160156 45.09375 167.699219 44.816406 167.222656 44.558594 C 166.746094 44.304688 166.261719 44.074219 165.761719 43.867188 C 165.261719 43.660156 164.757812 43.480469 164.242188 43.320312 C 163.722656 43.164062 163.203125 43.03125 162.671875 42.925781 C 162.144531 42.820312 161.609375 42.742188 161.074219 42.6875 C 160.535156 42.632812 160 42.605469 159.460938 42.605469 Z M 159.460938 42.605469"/></g><path fill="#B4E3FB" d="M 102 88.433594 C 102 88.753906 101.9375 89.0625 101.816406 89.355469 C 101.695312 89.652344 101.519531 89.914062 101.292969 90.140625 C 101.066406 90.363281 100.808594 90.539062 100.511719 90.660156 C 100.214844 90.785156 99.910156 90.84375 99.589844 90.84375 C 99.269531 90.84375 98.960938 90.785156 98.667969 90.660156 C 98.371094 90.539062 98.109375 90.363281 97.882812 90.140625 C 97.660156 89.914062 97.484375 89.652344 97.363281 89.355469 C 97.238281 89.0625 97.179688 88.753906 97.179688 88.433594 C 97.179688 88.113281 97.238281 87.808594 97.363281 87.511719 C 97.484375 87.214844 97.660156 86.957031 97.882812 86.730469 C 98.109375 86.503906 98.371094 86.328125 98.667969 86.207031 C 98.960938 86.085938 99.269531 86.023438 99.589844 86.023438 C 99.910156 86.023438 100.214844 86.085938 100.511719 86.207031 C 100.808594 86.328125 101.066406 86.503906 101.292969 86.730469 C 101.519531 86.957031 101.695312 87.214844 101.816406 87.511719 C 101.9375 87.808594 102 88.113281 102 88.433594 Z M 102 88.433594"/><path fill="#B4E3FB" d="M 131.738281 105.308594 C 131.738281 105.519531 131.699219 105.722656 131.617188 105.917969 C 131.535156 106.113281 131.421875 106.289062 131.269531 106.4375 C 131.121094 106.585938 130.949219 106.703125 130.753906 106.78125 C 130.558594 106.863281 130.355469 106.90625 130.140625 106.90625 C 129.929688 106.90625 129.726562 106.863281 129.53125 106.78125 C 129.335938 106.703125 129.164062 106.585938 129.011719 106.4375 C 128.863281 106.289062 128.746094 106.113281 128.667969 105.917969 C 128.585938 105.722656 128.546875 105.519531 128.546875 105.308594 C 128.546875 105.097656 128.585938 104.890625 128.667969 104.695312 C 128.746094 104.5 128.863281 104.328125 129.011719 104.179688 C 129.164062 104.027344 129.335938 103.914062 129.53125 103.832031 C 129.726562 103.75 129.929688 103.710938 130.140625 103.710938 C 130.355469 103.710938 130.558594 103.75 130.753906 103.832031 C 130.949219 103.914062 131.121094 104.027344 131.269531 104.179688 C 131.421875 104.328125 131.535156 104.5 131.617188 104.695312 C 131.699219 104.890625 131.738281 105.097656 131.738281 105.308594 Z M 131.738281 105.308594"/><path fill="#B4E3FB" d="M 121.285156 124.199219 C 121.285156 124.46875 121.230469 124.726562 121.128906 124.972656 C 121.027344 125.21875 120.882812 125.4375 120.691406 125.628906 C 120.503906 125.816406 120.285156 125.960938 120.039062 126.066406 C 119.789062 126.167969 119.53125 126.21875 119.265625 126.21875 C 118.996094 126.21875 118.738281 126.167969 118.492188 126.066406 C 118.246094 125.960938 118.027344 125.816406 117.835938 125.628906 C 117.648438 125.4375 117.503906 125.21875 117.398438 124.972656 C 117.296875 124.726562 117.246094 124.46875 117.246094 124.199219 C 117.246094 123.933594 117.296875 123.675781 117.398438 123.425781 C 117.503906 123.179688 117.648438 122.960938 117.835938 122.773438 C 118.027344 122.582031 118.246094 122.4375 118.492188 122.335938 C 118.738281 122.230469 118.996094 122.179688 119.265625 122.179688 C 119.53125 122.179688 119.789062 122.230469 120.039062 122.335938 C 120.285156 122.4375 120.503906 122.582031 120.691406 122.773438 C 120.882812 122.960938 121.027344 123.179688 121.128906 123.425781 C 121.230469 123.675781 121.285156 123.933594 121.285156 124.199219 Z M 121.285156 124.199219"/></svg>