<svg xmlns="http://www.w3.org/2000/svg" width="768" viewBox="0 0 768 768" height="768" version="1.0"><defs><clipPath id="a"><path d="M 24 509 L 406 509 L 406 614.28125 L 24 614.28125 Z M 24 509"/></clipPath><clipPath id="b"><path d="M 10 153.78125 L 393 153.78125 L 393 255 L 10 255 Z M 10 153.78125"/></clipPath></defs><path fill="#26477A" d="M 48.910156 355.753906 C 232.363281 358.484375 415.816406 357.210938 599.089844 354.480469 C 634.183594 353.9375 669.636719 354.480469 703.816406 344.296875 C 738 334.117188 761.089844 315.386719 766.910156 280.835938 C 771.636719 252.648438 760.546875 222.824219 735.089844 208.640625 C 715.453125 197.550781 688.546875 192.457031 666.910156 200.277344 C 636 211.371094 630.546875 244.828125 632.726562 273.925781 C 633.273438 283.199219 647.816406 283.378906 647.273438 273.925781 C 645.273438 245.738281 650.726562 214.277344 684.183594 211.371094 C 702.363281 209.734375 724.546875 215.914062 738 228.828125 C 772.726562 262.46875 746.910156 313.566406 708 327.75 C 685.816406 335.570312 662 338.480469 638.546875 339.207031 C 540.910156 342.117188 442.910156 341.933594 344.910156 342.296875 C 246.910156 342.660156 147.636719 342.660156 48.910156 341.207031 C 39.636719 341.207031 39.636719 355.753906 48.910156 355.753906 Z M 48.910156 355.753906"/><path fill="#26477A" d="M 7.089844 412.855469 C 161.816406 410.671875 316.726562 411.398438 471.636719 413.21875 C 510.789062 413.582031 549.816406 414.128906 588.726562 414.855469 C 622.183594 415.402344 662.910156 417.402344 689.816406 438.859375 C 720.363281 463.40625 720 522.871094 678.363281 535.238281 C 644.910156 545.238281 618.183594 527.597656 625.453125 491.230469 C 627.273438 482.136719 613.273438 478.136719 611.453125 487.410156 C 606.726562 511.234375 609.816406 535.964844 634 547.238281 C 652.363281 555.785156 677.636719 553.96875 695.089844 544.148438 C 721.636719 529.601562 730.546875 495.59375 723.816406 467.589844 C 716.183594 435.949219 691.636719 418.671875 661.816406 409.761719 C 629.273438 400.125 595.816406 400.308594 562.363281 399.761719 C 492.183594 398.671875 422.183594 397.941406 352 397.578125 C 237.089844 396.671875 122 396.671875 7.089844 398.308594 C -2.363281 398.488281 -2.363281 413.035156 7.089844 412.855469 Z M 7.089844 412.855469"/><path fill="#26477A" d="M 96.910156 466.863281 C 206.183594 465.40625 315.636719 466.5 424.910156 467.773438 C 448.363281 467.953125 472.910156 466.679688 496 470.316406 C 509.636719 472.316406 520.726562 475.773438 530 486.320312 C 544.363281 502.503906 540.546875 527.597656 521.273438 539.417969 C 502 551.238281 452 545.421875 460 514.324219 C 462.183594 505.230469 448.183594 501.414062 445.816406 510.503906 C 435.453125 551.058594 488.183594 566.695312 518.726562 556.511719 C 560.363281 542.511719 564.183594 487.230469 527.816406 464.863281 C 504.546875 450.679688 472.726562 453.769531 446.363281 453.40625 C 400 452.859375 353.636719 452.316406 307.273438 452.132812 C 237.089844 451.585938 167.089844 451.40625 96.910156 452.316406 C 87.636719 452.496094 87.636719 467.042969 96.910156 466.863281 Z M 96.910156 466.863281"/><g clip-path="url(#a)"><path fill="#26477A" d="M 31.636719 525.78125 C 120.183594 524.328125 208.726562 525.417969 297.273438 526.507812 C 316.183594 526.691406 336.726562 525.417969 355.453125 528.691406 C 383.273438 533.601562 403.453125 561.96875 382.546875 588.335938 C 367.273438 607.613281 322.546875 601.246094 328.910156 570.878906 C 330.726562 561.605469 316.726562 557.785156 314.910156 566.878906 C 305.636719 611.066406 368 630.34375 393.636719 598.15625 C 394.527344 597.082031 395.371094 595.972656 396.171875 594.828125 C 396.972656 593.679688 397.722656 592.507812 398.425781 591.300781 C 399.128906 590.09375 399.777344 588.859375 400.378906 587.597656 C 400.980469 586.339844 401.527344 585.054688 402.023438 583.75 C 402.515625 582.445312 402.957031 581.121094 403.34375 579.777344 C 403.726562 578.4375 404.058594 577.082031 404.332031 575.710938 C 404.605469 574.34375 404.820312 572.964844 404.980469 571.578125 C 405.140625 570.191406 405.242188 568.796875 405.289062 567.402344 C 405.332031 566.007812 405.320312 564.613281 405.25 563.21875 C 405.179688 561.824219 405.050781 560.433594 404.867188 559.050781 C 404.683594 557.664062 404.441406 556.292969 404.140625 554.929688 C 403.84375 553.5625 403.488281 552.214844 403.078125 550.878906 C 402.671875 549.542969 402.207031 548.230469 401.6875 546.933594 C 401.167969 545.636719 400.597656 544.363281 399.976562 543.113281 C 399.351562 541.863281 398.675781 540.644531 397.953125 539.449219 C 397.230469 538.257812 396.457031 537.09375 395.636719 535.964844 C 382.183594 516.871094 360.363281 513.414062 338.363281 512.507812 C 236.363281 508.140625 133.453125 509.597656 31.636719 511.234375 C 22.183594 511.414062 22.183594 525.960938 31.636719 525.78125 Z M 31.636719 525.78125"/></g><path fill="#26477A" d="M 80.183594 302.835938 C 193.636719 304.65625 307.273438 303.203125 420.726562 301.746094 C 447.089844 301.382812 476 303.566406 500.910156 293.746094 C 541.636719 277.742188 550 217.914062 512.363281 192.820312 C 478.726562 170.453125 418.546875 192.277344 429.089844 238.101562 C 431.089844 247.191406 445.273438 243.375 443.089844 234.28125 C 435.816406 203.003906 478.910156 191.183594 501.273438 203.1875 C 536.910156 222.460938 523.636719 272.105469 489.636719 282.105469 C 465.636719 289.382812 437.089844 287.015625 412 287.382812 C 301.453125 288.835938 190.726562 290.109375 80.183594 288.289062 C 70.726562 288.109375 70.726562 302.65625 80.183594 302.835938 Z M 80.183594 302.835938"/><g clip-path="url(#b)"><path fill="#26477A" d="M 18 253.558594 C 119.636719 255.195312 222 255.738281 323.636719 252.285156 C 345.273438 251.558594 367.273438 249.011719 381.636719 231.007812 C 396 213.007812 396.183594 187.910156 380.910156 169.363281 C 355.816406 138.8125 292.363281 155.90625 301.816406 199.550781 C 303.816406 208.824219 317.816406 204.824219 315.816406 195.730469 C 310 168.636719 351.636719 160.632812 367.636719 176.273438 C 393.273438 201.367188 370.183594 231.554688 342.546875 236.101562 C 323.453125 239.191406 302.546875 237.917969 283.273438 238.28125 C 194.726562 239.375 106.363281 240.28125 18 239.011719 C 8.546875 238.828125 8.546875 253.375 18 253.558594 Z M 18 253.558594"/></g></svg>